<svg id="left-arrow" xmlns="http://www.w3.org/2000/svg" width="35.811" height="68.62" viewBox="0 0 35.811 68.62">
  <path id="Path_100" data-name="Path 100" d="M151.632,68.62a1.491,1.491,0,0,1-1.056-.436l-32.81-32.81a1.491,1.491,0,0,1,0-2.109L150.576.455a1.491,1.491,0,0,1,2.145,2.072l-.037.037L120.93,34.318l31.757,31.754a1.491,1.491,0,0,1-1.056,2.547Z" transform="translate(-117.329 0)" fill="#13a64e"/>
  <path id="Path_101" data-name="Path 101" d="M151.632,68.62a1.491,1.491,0,0,1-1.056-.436l-32.81-32.81a1.491,1.491,0,0,1,0-2.109L150.576.455a1.491,1.491,0,0,1,2.145,2.072l-.037.037L120.93,34.318l31.757,31.754a1.491,1.491,0,0,1-1.056,2.547Z" transform="translate(-117.329 0)" fill="#13a64e"/>
</svg>
