<svg xmlns="http://www.w3.org/2000/svg" xmlns:xlink="http://www.w3.org/1999/xlink" width="96.333" height="104.783" viewBox="0 0 96.333 104.783">
  <defs>
    <clipPath id="clip-path">
      <path id="Path_16" data-name="Path 16" d="M3331.972,4589.26a1.017,1.017,0,0,0,.124.038.239.239,0,0,0,.1.049.513.513,0,0,0,.187.05.089.089,0,0,0,.074.025h0a.064.064,0,0,0,.049.025c.012.012.025.012.038.024s.037.013.062.013a.048.048,0,0,0,.038.012.109.109,0,0,0,.062.013h.038a.012.012,0,0,0,.011.013c.013,0,.013,0,.013.013s.013,0,.013.013v.011c0,.013,0,.013-.013.026v.036c-.013.013-.013.013-.013.024s0,.013-.011.013a.152.152,0,0,0-.013.075.045.045,0,0,0,.013.037.047.047,0,0,0,.011.037v.05a.011.011,0,0,0-.011.012h-.026c-.012,0-.024.013-.037.013s-.025.012-.037.012-.025.014-.038.025-.012.013-.025.013-.013.012-.025.024a.012.012,0,0,0-.012.013.046.046,0,0,0-.038.013c-.012,0-.012.012-.024.012a.044.044,0,0,1-.025.013c-.012,0-.024.013-.038.025s-.012.013-.025.013-.012.013-.012.013-.025,0-.025.012c-.025,0-.038,0-.05.013s-.012,0-.024.013-.025,0-.025.012a.045.045,0,0,0-.037.013.353.353,0,0,0-.111.025,1.029,1.029,0,0,0-.211.061c-.049.014-.087.025-.124.038a1.077,1.077,0,0,0-.186.062.239.239,0,0,0-.125.038.349.349,0,0,0-.111.024c-.026,0-.051.013-.075.013a.921.921,0,0,0-.186.024.092.092,0,0,0-.062.013h-.087a1.1,1.1,0,0,0-.2.013h-.087a.753.753,0,0,0-.162.012.361.361,0,0,0-.111-.012h-.024a.3.3,0,0,1-.1-.013h-.075a.179.179,0,0,0-.086-.013c-.049-.013-.1-.024-.162-.037l-.186-.037c-.037-.013-.087-.025-.125-.037a.922.922,0,0,0-.186-.025,1.7,1.7,0,0,0-.224-.062c-.037-.011-.074-.011-.124-.024a.374.374,0,0,0-.111-.024l-.111-.037c-.05-.013-.112-.024-.162-.037a.5.5,0,0,0-.062-.013.723.723,0,0,0-.087-.037c-.012,0-.025-.013-.05-.013s-.025-.013-.037-.025-.049-.012-.087-.024c-.012-.013-.024-.013-.049-.025a.439.439,0,0,0-.137-.062,1.72,1.72,0,0,0-.173-.074c-.012-.012-.024-.024-.024-.037v-.05l.024-.025a.417.417,0,0,0,.137-.05c.012,0,.024-.012.037-.012a.959.959,0,0,0,.186-.062.042.042,0,0,0,.025-.013c.037-.011.074-.023.112-.036a.294.294,0,0,0,.1-.025c.049-.012.086-.024.136-.037a.169.169,0,0,0,.075-.024.194.194,0,0,0,.111-.038.178.178,0,0,0,.087-.024,1.8,1.8,0,0,0,.236-.074c.062-.024.136-.038.2-.062a.428.428,0,0,0,.136-.049c.049-.013.087-.025.137-.038a.963.963,0,0,0,.21-.05.654.654,0,0,0,.149-.024.043.043,0,0,1,.037-.013.362.362,0,0,0,.125-.024.639.639,0,0,0,.149-.012c.038,0,.087-.014.124-.014a.242.242,0,0,0,.087-.011h.149a.35.35,0,0,0,.1.011h.087a.476.476,0,0,0,.137.025.71.71,0,0,0,.173.024h.037a.47.47,0,0,0,.137.037,1.03,1.03,0,0,0,.161.05l.149.038c.024,0,.05.011.074.011a.088.088,0,0,0,.05.026C3331.91,4589.235,3331.946,4589.249,3331.972,4589.26Z" transform="translate(-3328 -4589.001)" clip-rule="evenodd"/>
    </clipPath>
    <radialGradient id="radial-gradient" cx="0.5" cy="0.506" r="1.671" gradientTransform="matrix(0.299, 0.026, -0.002, 0.3, 0.352, 0.339)" gradientUnits="objectBoundingBox">
      <stop offset="0" stop-color="#c68e3b"/>
      <stop offset="0.62" stop-color="#f47d35"/>
      <stop offset="1" stop-color="#934f34"/>
    </radialGradient>
    <radialGradient id="radial-gradient-2" cx="0.499" cy="0.498" r="4.218" gradientTransform="matrix(0.119, 0.026, 0, 0.122, 0.441, 0.421)" gradientUnits="objectBoundingBox">
      <stop offset="0" stop-color="#352c2b"/>
      <stop offset="0.761" stop-color="#94633c"/>
      <stop offset="1" stop-color="#f39a4d"/>
    </radialGradient>
    <radialGradient id="radial-gradient-3" cx="0.497" cy="0.521" r="3.002" gradientTransform="matrix(0.166, 0.026, -0.001, 0.167, 0.417, 0.411)" gradientUnits="objectBoundingBox">
      <stop offset="0" stop-color="#f4c781"/>
      <stop offset="0.329" stop-color="#ef9a5c"/>
      <stop offset="1" stop-color="#eb6e37"/>
    </radialGradient>
    <clipPath id="clip-path-2">
      <path id="Path_21" data-name="Path 21" d="M3448.2,4357.469a.4.4,0,0,0,.05.112c.012.037.024.062.037.1a.606.606,0,0,0,.1.174.07.07,0,0,0,.037.063v.012a.044.044,0,0,0,.013.037.065.065,0,0,0,.025.05.062.062,0,0,0,.024.049c0,.013.012.025.012.038a.2.2,0,0,0,.037.05c0,.012.013.024.025.036l.012.013v.012a.012.012,0,0,1-.012.013v.012c-.012.011-.025.011-.025.024a.045.045,0,0,0-.037.013.043.043,0,0,1-.024.012.012.012,0,0,0-.012.013.067.067,0,0,0-.062.037l-.025.024c0,.013-.012.026-.012.038l-.024.024a.012.012,0,0,1-.013.013h-.013c-.012-.013-.012-.013-.024-.013s-.013-.012-.025-.024-.024-.012-.05-.012-.024-.013-.037-.013h-.025c-.013,0-.013,0-.025-.013h-.025c-.012,0-.025-.012-.037-.012h-.025c-.012-.013-.012-.013-.024-.013s-.025-.012-.05-.012a.044.044,0,0,0-.025-.013h-.012a.048.048,0,0,1-.025-.011.07.07,0,0,0-.049-.013c0-.012-.012-.012-.025-.012s-.012-.013-.025-.013a.043.043,0,0,0-.037-.013.3.3,0,0,0-.1-.062c-.062-.036-.125-.074-.2-.111-.038-.013-.075-.038-.112-.05a.985.985,0,0,0-.162-.087.609.609,0,0,0-.123-.062.269.269,0,0,0-.1-.061.248.248,0,0,0-.062-.038,1.335,1.335,0,0,0-.149-.124.164.164,0,0,1-.049-.038c-.025-.024-.05-.037-.063-.049a1.447,1.447,0,0,0-.148-.136l-.062-.062c-.038-.037-.087-.074-.125-.111l-.074-.074-.013-.013a.483.483,0,0,0-.074-.086c-.012-.013-.025-.037-.037-.05s-.038-.049-.062-.074a.87.87,0,0,0-.087-.136,1.121,1.121,0,0,0-.1-.162l-.075-.112c-.038-.05-.074-.112-.112-.162a1.656,1.656,0,0,0-.112-.186.781.781,0,0,0-.074-.1.565.565,0,0,0-.062-.112.46.46,0,0,0-.062-.1c-.024-.05-.049-.086-.074-.136-.012-.013-.025-.037-.038-.049a.525.525,0,0,0-.037-.087c-.013-.025-.013-.038-.025-.05s-.013-.025-.013-.038-.024-.061-.037-.086-.012-.024-.025-.049a1.2,1.2,0,0,0-.049-.137c-.024-.062-.05-.124-.074-.186v-.037a.183.183,0,0,0,.05-.037h.024a.683.683,0,0,0,.136.062c.013,0,.025.013.038.013a.639.639,0,0,0,.186.087.012.012,0,0,0,.012.013.606.606,0,0,1,.1.061.2.2,0,0,1,.088.051,1.041,1.041,0,0,1,.124.061l.075.037c.038.025.074.038.112.063l.074.037a1.7,1.7,0,0,0,.225.1,1.309,1.309,0,0,0,.186.1c.037.024.087.049.124.074a1.285,1.285,0,0,1,.125.062,1.507,1.507,0,0,0,.186.112.9.9,0,0,0,.137.087c.012,0,.012.012.024.012a.616.616,0,0,1,.1.074.711.711,0,0,0,.124.086.793.793,0,0,0,.1.088c.025.012.037.037.062.05s.038.049.063.061a.089.089,0,0,0,.05.05.314.314,0,0,0,.061.075c.025.024.038.05.063.063l.075.11c.037.05.074.088.111.138a.04.04,0,0,0,.013.024,1.133,1.133,0,0,0,.087.125.865.865,0,0,0,.087.148.252.252,0,0,0,.075.125l.037.074a.092.092,0,0,0,.025.049A.364.364,0,0,0,3448.2,4357.469Z" transform="translate(-3445 -4355)" clip-rule="evenodd"/>
    </clipPath>
    <radialGradient id="radial-gradient-4" cx="0.488" cy="0.489" r="0.694" gradientTransform="matrix(0.666, 0.721, -0.208, 0.208, 0.265, 0.035)" xlink:href="#radial-gradient"/>
    <radialGradient id="radial-gradient-5" cx="0.498" cy="0.5" r="0.723" gradientTransform="matrix(0.663, 0.721, -0.084, 0.085, 0.211, 0.097)" xlink:href="#radial-gradient-2"/>
    <radialGradient id="radial-gradient-6" cx="0.496" cy="0.521" r="0.698" gradientTransform="matrix(0.677, 0.721, -0.118, 0.116, 0.222, 0.1)" xlink:href="#radial-gradient-3"/>
    <clipPath id="clip-path-3">
      <path id="Path_26" data-name="Path 26" d="M3687.179,4234.983a.388.388,0,0,0-.037.111.751.751,0,0,0-.05.1.523.523,0,0,0-.05.186.093.093,0,0,0-.024.075v.012c-.013.012-.025.024-.025.038s-.012.035-.025.049a.074.074,0,0,0-.012.05c-.013.012-.013.024-.013.049s-.012.025-.012.05-.013.024,0,.05c-.013,0-.013,0-.013.011a.012.012,0,0,0-.012.013h-.05c-.013,0-.025-.013-.037-.013h-.025c-.012-.011-.012-.011-.024-.011s-.038-.014-.062-.014h-.037c-.012,0-.024.014-.038.014a.047.047,0,0,0-.037.011l-.013-.011c-.012,0-.012-.014-.012-.014v-.011a.044.044,0,0,1-.013-.037.093.093,0,0,0-.024-.05.044.044,0,0,0-.013-.025.038.038,0,0,1-.012-.025c-.013-.013-.013-.025-.025-.025s0-.012-.012-.026a.046.046,0,0,0-.013-.024.037.037,0,0,1-.012-.025.038.038,0,0,1-.012-.024c-.013-.012-.013-.024-.025-.038s-.012-.024-.012-.037a.012.012,0,0,1-.012-.012c0-.012,0-.012-.013-.025a.045.045,0,0,0-.012-.037.046.046,0,0,0-.012-.038.038.038,0,0,0-.012-.024c0-.012,0-.025-.013-.025a.369.369,0,0,0-.025-.111,1.528,1.528,0,0,0-.062-.224c-.012-.037-.025-.074-.037-.112a1.109,1.109,0,0,0-.062-.186.366.366,0,0,0-.037-.125.372.372,0,0,0-.025-.112c0-.024-.013-.049-.013-.074-.012-.063-.012-.137-.025-.2a.615.615,0,0,1-.012-.063v-.073a.936.936,0,0,0-.013-.2v-.087a.838.838,0,0,0-.012-.174.271.271,0,0,0,0-.1c0-.013.012-.013.012-.024v-.1a.151.151,0,0,0,.013-.075.25.25,0,0,0,.012-.086.709.709,0,0,0,.025-.162.98.98,0,0,0,.05-.186.514.514,0,0,0,.025-.136.509.509,0,0,0,.038-.187.591.591,0,0,0,.049-.211.564.564,0,0,0,.024-.124.351.351,0,0,0,.038-.125.368.368,0,0,0,.024-.111.668.668,0,0,0,.05-.149c0-.026.012-.038.012-.062s.025-.062.037-.087.012-.037.012-.05a.043.043,0,0,0,.013-.037.58.58,0,0,1,.037-.088c.012-.011.012-.037.024-.049.025-.049.038-.1.062-.136.025-.062.05-.124.075-.187.013,0,.025-.012.038-.024s.025.012.049.012l.025.025a.938.938,0,0,0,.049.136.04.04,0,0,0,.013.026.92.92,0,0,0,.062.2c0,.013,0,.013.012.026a.349.349,0,0,0,.025.111c.012.025.012.062.025.087a.416.416,0,0,0,.05.136c0,.025.012.063.012.086s.025.075.038.113a.172.172,0,0,1,.025.074,1.336,1.336,0,0,0,.087.236.951.951,0,0,0,.062.2c.012.05.025.1.038.149a.873.873,0,0,0,.05.137,1.47,1.47,0,0,0,.037.211l.037.149c0,.012.013.025.013.037a.365.365,0,0,0,.024.112.614.614,0,0,0,.012.149c0,.05.013.086.013.124v.348a.21.21,0,0,1-.013.087c0,.038-.012.087-.012.125a.976.976,0,0,0-.024.173.045.045,0,0,1-.013.037.632.632,0,0,0-.024.149.607.607,0,0,0-.049.161c-.013.049-.025.087-.038.137a.181.181,0,0,1-.024.075c0,.024-.013.037-.013.062A.841.841,0,0,0,3687.179,4234.983Z" transform="translate(-3686 -4231)" clip-rule="evenodd"/>
    </clipPath>
    <radialGradient id="radial-gradient-7" cx="0.508" cy="0.501" r="0.499" gradientTransform="matrix(-0.086, 1, -1.006, -0.008, 1.051, 0.001)" xlink:href="#radial-gradient"/>
    <radialGradient id="radial-gradient-8" cx="0.507" cy="0.499" r="0.499" gradientTransform="matrix(-0.216, 1, -1.034, -0.003, 1.127, 0.001)" xlink:href="#radial-gradient-2"/>
    <radialGradient id="radial-gradient-9" cx="0.471" cy="0.502" r="0.5" gradientTransform="matrix(-0.154, 1, -1.001, -0.004, 1.061, 0.017)" xlink:href="#radial-gradient-3"/>
    <clipPath id="clip-path-4">
      <path id="Path_31" data-name="Path 31" d="M3759.967,4353.177c-.037.011-.074.037-.111.049a.673.673,0,0,1-.1.05.982.982,0,0,0-.174.087.258.258,0,0,0-.062.036h-.012c-.013.013-.025.013-.038.024s-.037,0-.049.013a.066.066,0,0,0-.05.025c-.012,0-.024.012-.037.023a.073.073,0,0,0-.05.024l-.037.039h-.037l-.013-.013-.024-.026c0-.01,0-.024-.013-.024a.04.04,0,0,0-.012-.023c0-.013,0-.013-.012-.025a.068.068,0,0,0-.038-.062c-.013,0-.013-.012-.024-.012s-.025-.026-.038-.026-.012-.013-.024-.013-.013-.012-.013-.024v-.013l.013-.011c.012-.012.012-.026.024-.038s.013-.024.013-.05c.012,0,.012-.011.012-.023v-.039a.046.046,0,0,0,.013-.026v-.023a.049.049,0,0,0,.012-.037.04.04,0,0,1,.013-.026v-.024a.043.043,0,0,0,.013-.036.049.049,0,0,0,.012-.039v-.012c.013-.013.013-.013.013-.024s.012-.024.024-.038a.045.045,0,0,1,.013-.037.041.041,0,0,1,.012-.026c0-.012.012-.012.012-.024a.808.808,0,0,1,.05-.1.817.817,0,0,0,.112-.2.505.505,0,0,0,.062-.111,1.066,1.066,0,0,0,.087-.175.5.5,0,0,0,.063-.111.485.485,0,0,0,.062-.1c.012-.026.025-.037.037-.062a.764.764,0,0,0,.125-.162l.037-.036c.025-.024.037-.05.063-.063.037-.049.086-.1.123-.148.025-.026.051-.037.063-.062.038-.037.075-.087.112-.125s.049-.049.075-.073c.012,0,.012-.014.024-.014a.368.368,0,0,1,.074-.061.244.244,0,0,1,.063-.05c.025-.012.049-.038.075-.049.037-.038.086-.062.124-.1a1.143,1.143,0,0,0,.174-.1.3.3,0,0,0,.112-.075,1.094,1.094,0,0,0,.149-.1,1.136,1.136,0,0,0,.2-.124.256.256,0,0,0,.1-.062c.038-.026.075-.038.112-.062a.478.478,0,0,0,.1-.063c.05-.023.086-.049.136-.074.013-.014.038-.025.049-.037a.606.606,0,0,0,.088-.038.064.064,0,0,0,.049-.025c.012,0,.024-.013.037-.013s.063-.024.087-.037a.1.1,0,0,0,.049-.023.661.661,0,0,0,.149-.05.425.425,0,0,0,.173-.075.047.047,0,0,0,.038.013l.037.038v.036a.649.649,0,0,0-.062.125c0,.013-.013.024-.013.039-.037.061-.061.123-.1.186v.024a.657.657,0,0,0-.062.1.483.483,0,0,0-.049.086.39.39,0,0,0-.062.124.24.24,0,0,0-.05.063c-.013.036-.037.073-.049.111s-.025.05-.038.075a.952.952,0,0,0-.111.223c-.038.062-.062.124-.1.187a.558.558,0,0,0-.062.124c-.025.049-.05.086-.074.125a1.3,1.3,0,0,0-.111.186.78.78,0,0,0-.087.124c0,.013-.013.024-.025.038-.024.037-.037.062-.062.1a1.007,1.007,0,0,0-.1.125.575.575,0,0,0-.074.1c-.025.012-.037.036-.062.062s-.038.037-.062.061l-.038.039c-.025.024-.051.049-.075.074s-.049.037-.074.05a.326.326,0,0,0-.1.086,1.032,1.032,0,0,0-.15.1c0,.012-.012.012-.024.024-.037.023-.086.049-.125.074a1.027,1.027,0,0,0-.149.087.407.407,0,0,0-.124.075l-.074.036c-.013,0-.025.013-.05.026A.883.883,0,0,1,3759.967,4353.177Z" transform="translate(-3759 -4349.999)" clip-rule="evenodd"/>
    </clipPath>
    <radialGradient id="radial-gradient-10" cx="0.51" cy="0.492" r="0.672" gradientTransform="matrix(-0.745, 0.687, -0.212, -0.218, 0.995, 0.247)" xlink:href="#radial-gradient"/>
    <radialGradient id="radial-gradient-11" cx="0.501" cy="0.503" r="0.698" gradientTransform="matrix(-0.747, 0.687, -0.086, -0.089, 0.918, 0.202)" xlink:href="#radial-gradient-2"/>
    <radialGradient id="radial-gradient-12" cx="0.477" cy="0.503" r="0.688" gradientTransform="matrix(-0.738, 0.687, -0.117, -0.121, 0.892, 0.233)" xlink:href="#radial-gradient-3"/>
    <clipPath id="clip-path-5">
      <path id="Path_36" data-name="Path 36" d="M3774.793,4592.167a.411.411,0,0,0-.111-.038.375.375,0,0,0-.1-.05,1.134,1.134,0,0,0-.187-.062.147.147,0,0,0-.074-.013h0a.1.1,0,0,0-.049-.024.069.069,0,0,0-.05-.024c-.013-.012-.025-.012-.049-.012a.046.046,0,0,0-.038-.013.107.107,0,0,0-.062-.013.045.045,0,0,0-.038-.013h-.012c-.013,0-.013-.012-.025-.012v-.062c.012,0,.012-.013.012-.024a.044.044,0,0,1,.013-.026c0-.013,0-.013.012-.024s.013-.049.013-.075-.013-.025-.013-.036a.047.047,0,0,0-.012-.038v-.05h.012c.013,0,.013-.013.025-.013h.038c.012-.012.025-.012.037-.024s.026-.012.038-.012l.024-.026a.04.04,0,0,0,.025-.012l.013-.013c.011,0,.024-.013.037-.013s.013-.012.024-.012.012-.013.025-.013.025-.013.038-.024a.044.044,0,0,0,.025-.013c.012-.012.012-.012.025-.012l.012-.013c.024,0,.037,0,.049-.013s.013-.013.024-.013.025,0,.025-.012a.048.048,0,0,0,.037-.011.36.36,0,0,0,.112-.026,1.13,1.13,0,0,0,.21-.062c.05-.013.088-.024.125-.037.063-.013.124-.038.186-.049a.494.494,0,0,0,.125-.05.39.39,0,0,0,.112-.024.149.149,0,0,0,.073-.013,1.388,1.388,0,0,0,.2-.024h.062a.148.148,0,0,0,.074-.013,1.006,1.006,0,0,0,.2,0h.086a.865.865,0,0,0,.174-.012.28.28,0,0,0,.1,0c.013,0,.013.012.026.012h.1a.151.151,0,0,0,.075.013.229.229,0,0,0,.086.011c.05.013.112.026.162.038l.187.039c.037.012.086.024.124.036.062.013.124.024.2.038a1.081,1.081,0,0,0,.21.05.466.466,0,0,0,.125.025c.037.011.074.024.111.037a.355.355,0,0,0,.125.024.706.706,0,0,0,.149.038.091.091,0,0,0,.062.024.6.6,0,0,0,.087.037c.012,0,.025.013.049.013a.047.047,0,0,0,.037.012.534.534,0,0,0,.088.037c.012.013.024.013.049.026s.086.036.136.062a1.137,1.137,0,0,0,.174.075c.012.011.012.023.025.036v.05c-.013.013-.025.013-.025.024a.4.4,0,0,0-.137.05c-.012,0-.025.011-.037.011a1.32,1.32,0,0,0-.2.062l-.013.013a.348.348,0,0,0-.112.025c-.037.013-.074.013-.1.025a.588.588,0,0,0-.136.049c-.024,0-.049.011-.075.011-.05.013-.086.026-.124.039s-.049.011-.075.024a1.218,1.218,0,0,0-.236.087.931.931,0,0,0-.2.061l-.149.038c-.037.013-.086.024-.124.037a1.315,1.315,0,0,0-.224.05.608.608,0,0,0-.149.024c-.012,0-.024.012-.038.012a.361.361,0,0,0-.111.026.627.627,0,0,0-.148.012c-.05,0-.088.013-.125.013h-.348c-.025,0-.049-.013-.087-.013s-.086-.012-.124-.024c-.062-.013-.124-.013-.173-.025h-.037l-.15-.037c-.05-.013-.1-.038-.161-.05s-.087-.024-.137-.036c-.024,0-.05-.013-.074-.013a.269.269,0,0,1-.049-.024Z" transform="translate(-3774 -4591)" clip-rule="evenodd"/>
    </clipPath>
    <radialGradient id="radial-gradient-13" cx="0.501" cy="0.505" r="1.671" gradientTransform="matrix(-0.299, -0.032, 0.003, -0.3, 0.648, 0.67)" xlink:href="#radial-gradient"/>
    <radialGradient id="radial-gradient-14" cx="0.501" cy="0.494" r="4.218" gradientTransform="matrix(-0.119, -0.032, 0, -0.122, 0.559, 0.58)" xlink:href="#radial-gradient-2"/>
    <radialGradient id="radial-gradient-15" cx="0.497" cy="0.485" r="2.906" gradientTransform="matrix(-0.171, -0.032, 0.001, -0.167, 0.585, 0.58)" xlink:href="#radial-gradient-3"/>
    <clipPath id="clip-path-6">
      <path id="Path_41" data-name="Path 41" d="M3754.348,4662.98a.414.414,0,0,0-.051-.111.691.691,0,0,0-.037-.1.742.742,0,0,0-.087-.174.107.107,0,0,0-.037-.074h0c0-.025-.013-.037-.013-.049a7.058,7.058,0,0,1-.049-.1c0-.013-.012-.024-.012-.037s-.024-.037-.038-.049-.012-.026-.025-.038v-.038c0-.012.013-.012.013-.012s.012-.013.025-.013.024-.012.024-.025.025,0,.025-.013h.024a.2.2,0,0,0,.062-.048.044.044,0,0,0,.013-.025c.012-.013.025-.024.025-.038a.012.012,0,0,0,.013-.013l.024-.024c0,.012.013.012.013.012h.012c.013.012.024.025.038.025a.062.062,0,0,0,.049.024.038.038,0,0,1,.025.013h.037a.041.041,0,0,1,.025.012h.024c.012,0,.025.013.037.013a.04.04,0,0,1,.025.012h.024a.046.046,0,0,0,.038.013.044.044,0,0,0,.037.012s.013,0,.013.012h.024c.013.013.025.026.038.026a.045.045,0,0,1,.025.012.043.043,0,0,0,.037.013c0,.012.013.012.024.012a.442.442,0,0,0,.1.063c.063.037.125.075.2.112a.535.535,0,0,0,.112.062.678.678,0,0,0,.161.1.509.509,0,0,0,.112.063c.037.025.063.037.1.062s.037.024.062.038a1.448,1.448,0,0,0,.148.124.089.089,0,0,1,.05.05c.025.012.038.037.063.05a.7.7,0,0,0,.136.136c.025.025.05.038.063.062.037.038.086.075.125.111a.387.387,0,0,0,.074.075c0,.012.012.012.012.025.024.024.037.048.063.074a.121.121,0,0,0,.05.062.257.257,0,0,0,.049.075.814.814,0,0,0,.087.136.675.675,0,0,0,.1.162.391.391,0,0,0,.062.125c.038.049.062.1.112.162a.782.782,0,0,0,.111.186.482.482,0,0,0,.063.111.249.249,0,0,0,.063.1c.012.038.037.075.049.111a1.242,1.242,0,0,1,.074.137c.012.012.025.038.037.051a.724.724,0,0,0,.038.086.094.094,0,0,0,.024.049.047.047,0,0,0,.013.038c.013.025.024.062.037.086s.012.037.012.049c.013.05.038.1.05.149s.049.125.075.188a.043.043,0,0,0-.012.036c-.013,0-.025.014-.037.025h-.038a.53.53,0,0,0-.124-.061c-.013,0-.025-.014-.038-.014a1.294,1.294,0,0,0-.186-.1l-.012-.012a.623.623,0,0,0-.1-.05.549.549,0,0,1-.087-.063.684.684,0,0,0-.124-.062c-.025-.011-.049-.037-.075-.049a.419.419,0,0,0-.1-.05.247.247,0,0,0-.074-.048l-.224-.112a1.279,1.279,0,0,0-.186-.1c-.037-.025-.088-.049-.125-.075a.588.588,0,0,0-.124-.062.966.966,0,0,0-.187-.124.443.443,0,0,0-.124-.087l-.024-.024c-.037-.025-.062-.05-.1-.074s-.075-.062-.112-.087a.722.722,0,0,1-.1-.088.139.139,0,0,1-.062-.061.16.16,0,0,1-.062-.062.137.137,0,0,0-.05-.037.229.229,0,0,0-.061-.088.212.212,0,0,1-.05-.061.611.611,0,0,0-.087-.113.551.551,0,0,0-.1-.136c0-.012-.012-.024-.012-.037a.873.873,0,0,0-.087-.125.9.9,0,0,0-.075-.149,1.084,1.084,0,0,0-.074-.124l-.038-.075c0-.012-.012-.037-.012-.05C3754.385,4663.042,3754.359,4663.018,3754.348,4662.98Z" transform="translate(-3753.999 -4662)" clip-rule="evenodd"/>
    </clipPath>
    <radialGradient id="radial-gradient-16" cx="0.51" cy="0.512" r="0.677" gradientTransform="matrix(-0.681, -0.742, 0.226, -0.202, 0.74, 0.99)" xlink:href="#radial-gradient"/>
    <radialGradient id="radial-gradient-17" cx="0.499" cy="0.502" r="0.7" gradientTransform="matrix(-0.682, -0.742, 0.092, -0.082, 0.796, 0.914)" xlink:href="#radial-gradient-2"/>
    <radialGradient id="radial-gradient-18" cx="0.498" cy="0.481" r="0.682" gradientTransform="matrix(-0.692, -0.742, 0.128, -0.112, 0.785, 0.904)" xlink:href="#radial-gradient-3"/>
    <clipPath id="clip-path-7">
      <path id="Path_46" data-name="Path 46" d="M3682.273,4677.794a.453.453,0,0,0,.05-.112.425.425,0,0,0,.049-.112.761.761,0,0,0,.063-.173.186.186,0,0,0,.024-.075v-.012a.048.048,0,0,0,.013-.039,14.227,14.227,0,0,1,.049-.1c0-.013.013-.024.013-.038s.012-.036.012-.062v-.05a.012.012,0,0,0,.012-.012l.012-.012h.05a.046.046,0,0,0,.037.012c.013,0,.013.012.025.012h.012a.177.177,0,0,0,.075.025.045.045,0,0,0,.037-.013h.037a.038.038,0,0,1,.025-.013h.024c0,.013.012.013.012.025v.012a.047.047,0,0,0,.013.039c0,.012.012.025.012.049l.025.024c0,.013.013.013.013.026s.012.011.012.023.013.013.013.026l.025.024c0,.013,0,.026.012.026s0,.013.012.024a.046.046,0,0,0,.013.038c.012.011.012.024.024.037v.013c0,.011.012.011.012.025a.044.044,0,0,0,.013.036c0,.013.012.025.012.039a.039.039,0,0,0,.013.024c0,.012,0,.024.012.024a.372.372,0,0,0,.025.112,1.506,1.506,0,0,0,.062.223.447.447,0,0,0,.024.124,1.213,1.213,0,0,0,.063.187.246.246,0,0,0,.037.124c0,.037.013.075.013.112s.012.05.025.074a1,1,0,0,0,.012.187.494.494,0,0,0,.013.062v.373a.666.666,0,0,0,.013.161.325.325,0,0,0-.013.112v.024c0,.025-.013.062-.013.1a.167.167,0,0,1-.012.075c0,.024-.013.05-.013.086a.631.631,0,0,0-.025.162,1.045,1.045,0,0,0-.049.187.468.468,0,0,0-.037.123c-.013.062-.025.124-.038.187a1.436,1.436,0,0,0-.062.225.351.351,0,0,0-.025.11c-.012.049-.024.088-.037.124a.343.343,0,0,0-.025.111.745.745,0,0,0-.049.151c0,.023-.012.036-.012.061s-.025.063-.038.087-.012.038-.024.05a.044.044,0,0,1-.013.036c-.013.024-.024.063-.037.086s-.012.037-.012.05c-.024.049-.05.086-.074.137a1.788,1.788,0,0,0-.075.174c-.013.012-.024.024-.037.024h-.05c-.012-.013-.012-.024-.024-.024a.463.463,0,0,0-.05-.137.044.044,0,0,0-.013-.037,1.15,1.15,0,0,0-.062-.2v-.024l-.037-.112a.235.235,0,0,0-.025-.086c-.012-.05-.025-.1-.037-.136s-.013-.062-.013-.088-.024-.073-.037-.112a.572.572,0,0,1-.024-.086c-.025-.074-.05-.16-.075-.236a1.287,1.287,0,0,0-.062-.2c-.013-.049-.025-.1-.037-.136s-.025-.1-.038-.136c-.012-.075-.024-.149-.037-.211s-.024-.1-.038-.15a.074.074,0,0,0-.012-.049.345.345,0,0,0-.012-.112c0-.05-.012-.1-.012-.15s-.012-.086-.012-.124v-.347a.192.192,0,0,0,.012-.087.457.457,0,0,0,.024-.124.864.864,0,0,0,.025-.174.047.047,0,0,0,.012-.038c.012-.05.025-.087.037-.136s.037-.112.05-.173c.012-.039.024-.088.037-.138.012-.026.012-.049.024-.075a.1.1,0,0,1,.025-.049A.293.293,0,0,0,3682.273,4677.794Z" transform="translate(-3682 -4677)" clip-rule="evenodd"/>
    </clipPath>
    <radialGradient id="radial-gradient-19" cx="0.495" cy="0.501" r="0.499" gradientTransform="matrix(0.159, -0.999, 1.014, 0.014, -0.094, 0.983)" xlink:href="#radial-gradient"/>
    <radialGradient id="radial-gradient-20" cx="0.502" cy="0.498" r="0.501" gradientTransform="matrix(0.408, -0.999, 1.056, 0.006, -0.224, 1.009)" xlink:href="#radial-gradient-2"/>
    <radialGradient id="radial-gradient-21" cx="0.539" cy="0.499" r="0.498" gradientTransform="matrix(0.276, -0.999, 0.974, 0.008, -0.104, 1.023)" xlink:href="#radial-gradient-3"/>
    <clipPath id="clip-path-8">
      <path id="Path_51" data-name="Path 51" d="M3441.606,4658.335a.311.311,0,0,0,.111-.05l.112-.038a.425.425,0,0,0,.173-.087.1.1,0,0,0,.074-.036h0a.1.1,0,0,0,.05-.013.1.1,0,0,0,.049-.012.1.1,0,0,0,.05-.025c.012,0,.024-.013.038-.024s.024-.013.049-.026.024-.012.037-.023h.038l.012.012a.041.041,0,0,1,.013.025l.025.024v.024c.012.014.012.014.012.025s.025.037.038.063a.028.028,0,0,1,.025.024c.012,0,.025.012.037.012l.024.026.013.011v.025c-.013,0-.013,0-.013.013s-.012.012-.024.024-.012.025-.025.05v.037c-.012,0-.012.013-.012.025v.024c-.013.013-.013.013-.013.024s-.012.024-.012.038v.024c-.013,0-.013.012-.013.024a.046.046,0,0,0-.013.037.048.048,0,0,0-.012.038l-.012.012c0,.012,0,.012-.013.025s-.012.025-.012.037a.038.038,0,0,0-.013.025.035.035,0,0,0-.012.024c-.012.013-.012.024-.024.036a.689.689,0,0,0-.05.1,1.631,1.631,0,0,0-.125.187.464.464,0,0,0-.062.11,1.071,1.071,0,0,0-.1.162.851.851,0,0,1-.125.211.229.229,0,0,0-.05.061c-.037.05-.087.1-.124.149a.2.2,0,0,1-.037.051l-.062.063a1.482,1.482,0,0,0-.136.136l-.062.063a.53.53,0,0,0-.111.124.209.209,0,0,0-.087.062.012.012,0,0,1-.012.013.973.973,0,0,1-.087.062.271.271,0,0,1-.062.05.279.279,0,0,0-.075.05c-.037.024-.087.05-.136.087s-.112.062-.161.088a.862.862,0,0,0-.112.073,1.464,1.464,0,0,0-.174.1.81.81,0,0,0-.186.113.457.457,0,0,0-.112.062.266.266,0,0,0-.1.062.474.474,0,0,0-.111.05,1.115,1.115,0,0,0-.136.075c-.025.012-.038.012-.062.023a.441.441,0,0,1-.086.038c-.013.013-.025.013-.05.025s-.025.012-.037.012l-.074.038c-.025,0-.037.012-.062.012-.05.012-.1.038-.136.05a.651.651,0,0,0-.187.062.047.047,0,0,1-.037-.012l-.038-.038v-.037a.4.4,0,0,0,.063-.123c.012-.013.012-.026.024-.038.037-.049.062-.111.1-.174,0-.013,0-.013.012-.024a.712.712,0,0,0,.049-.1c.024-.025.038-.05.063-.076a1.025,1.025,0,0,0,.062-.123.228.228,0,0,0,.05-.075c.024-.036.037-.062.062-.1s.025-.05.037-.074a.923.923,0,0,0,.112-.224.758.758,0,0,0,.112-.187,1.032,1.032,0,0,0,.075-.123l.074-.113a1.56,1.56,0,0,0,.124-.185,1.154,1.154,0,0,0,.087-.125c0-.012.012-.023.025-.036a.385.385,0,0,0,.062-.088.858.858,0,0,0,.1-.111.706.706,0,0,0,.086-.1l.062-.062c.024-.024.05-.038.063-.062s.037-.024.05-.037l.074-.074a.284.284,0,0,0,.075-.05c.037-.024.074-.051.111-.074a.6.6,0,0,0,.137-.1c.012,0,.024-.014.037-.014.038-.023.087-.049.124-.073a.934.934,0,0,0,.149-.088.363.363,0,0,0,.124-.061l.074-.038a.062.062,0,0,0,.05-.024C3441.544,4658.359,3441.582,4658.347,3441.606,4658.335Z" transform="translate(-3439 -4658)" clip-rule="evenodd"/>
    </clipPath>
    <radialGradient id="radial-gradient-22" cx="0.49" cy="0.51" r="0.699" gradientTransform="matrix(0.716, -0.658, 0.188, 0.226, 0.043, 0.716)" xlink:href="#radial-gradient"/>
    <radialGradient id="radial-gradient-23" cx="0.499" cy="0.499" r="0.723" gradientTransform="matrix(0.718, -0.658, 0.077, 0.092, 0.103, 0.784)" xlink:href="#radial-gradient-2"/>
    <radialGradient id="radial-gradient-24" cx="0.522" cy="0.502" r="0.709" gradientTransform="matrix(0.713, -0.658, 0.104, 0.126, 0.097, 0.78)" xlink:href="#radial-gradient-3"/>
    <clipPath id="clip-path-9">
      <path id="Path_58" data-name="Path 58" d="M4775.971,4592.248a.442.442,0,0,0,.111.049l.111.037a.7.7,0,0,0,.187.063.08.08,0,0,0,.075.012v.012c.012,0,.024.013.05.013s.023.025.037.025a.121.121,0,0,0,.063.011.042.042,0,0,0,.037.013.077.077,0,0,0,.05.012.092.092,0,0,0,.05.013h.012l.011.012.013.012v.013a.046.046,0,0,1-.013.025v.037a.043.043,0,0,0-.011.026c0,.012-.012.012-.012.025a.148.148,0,0,0-.013.074c0,.012,0,.012.013.024v.05c.012,0,.012.012.012.025v.024h-.025a.012.012,0,0,1-.013.012h-.037c-.013,0-.025.013-.038.026s-.025.012-.037.012l-.026.025c-.012,0-.012,0-.024.013l-.013.011c-.013,0-.025.013-.037.013s-.013.012-.025.012-.013.013-.024.013-.025.012-.038.024-.025.013-.025.025h-.024a.042.042,0,0,1-.025.012c-.012,0-.025.013-.037.013s-.013.012-.026.012a.038.038,0,0,0-.023.013.05.05,0,0,0-.038.011.4.4,0,0,0-.111.038.584.584,0,0,0-.212.062.362.362,0,0,0-.123.025c-.062.024-.125.038-.187.063-.038.013-.087.024-.125.038s-.074.012-.111.025-.05.012-.076.012a.962.962,0,0,0-.185.038h-.149a1.186,1.186,0,0,0-.2.011h-.087a.666.666,0,0,0-.161.013h-.137a.227.227,0,0,0-.1-.013.171.171,0,0,0-.074-.011c-.025,0-.062-.013-.087-.013a.637.637,0,0,0-.161-.025,1.174,1.174,0,0,0-.187-.05.472.472,0,0,0-.125-.024.491.491,0,0,0-.186-.038.741.741,0,0,0-.223-.049.469.469,0,0,0-.125-.025.352.352,0,0,0-.111-.037.359.359,0,0,0-.125-.025.69.69,0,0,0-.148-.05.452.452,0,0,0-.062-.013.669.669,0,0,0-.086-.037c-.013,0-.038-.013-.05-.013a.048.048,0,0,0-.038-.012.68.68,0,0,0-.086-.038.315.315,0,0,0-.05-.024c-.038-.025-.087-.037-.137-.062l-.187-.074c0-.013-.012-.025-.012-.038v-.049c.012,0,.012-.013.024-.025a.6.6,0,0,0,.136-.049.045.045,0,0,0,.038-.013,1.047,1.047,0,0,0,.187-.062c.012,0,.023,0,.023-.012a.366.366,0,0,0,.112-.025c.038-.012.063-.012.1-.024a1.129,1.129,0,0,0,.136-.049c.025,0,.05-.013.075-.013l.112-.037a.228.228,0,0,1,.086-.026,1.791,1.791,0,0,0,.236-.086,1.206,1.206,0,0,0,.2-.062c.05-.013.087-.024.137-.037a.714.714,0,0,0,.137-.049,1.109,1.109,0,0,0,.21-.038l.149-.038c.013,0,.025-.012.038-.012.037,0,.086-.013.124-.013s.1-.012.149-.025a.487.487,0,0,0,.124-.012h.336c.037,0,.061.012.087.012.05,0,.087.013.137.013a.737.737,0,0,0,.173.025c.011,0,.024.012.037.012a.426.426,0,0,0,.137.025.888.888,0,0,0,.161.05l.149.037c.026.013.049.013.074.025s.038.012.049.012C4775.908,4592.222,4775.933,4592.234,4775.971,4592.248Z" transform="translate(-4771.999 -4592)" clip-rule="evenodd"/>
    </clipPath>
    <radialGradient id="radial-gradient-25" cx="0.499" cy="0.495" r="1.671" gradientTransform="matrix(0.299, 0.026, -0.002, 0.3, 0.351, 0.335)" xlink:href="#radial-gradient"/>
    <radialGradient id="radial-gradient-26" cx="0.499" cy="0.504" r="4.218" gradientTransform="matrix(0.119, 0.026, 0, 0.122, 0.441, 0.427)" xlink:href="#radial-gradient-2"/>
    <radialGradient id="radial-gradient-27" cx="0.498" cy="0.501" r="3.002" gradientTransform="matrix(0.166, 0.026, -0.001, 0.167, 0.417, 0.419)" xlink:href="#radial-gradient-3"/>
    <clipPath id="clip-path-10">
      <path id="Path_63" data-name="Path 63" d="M4892.189,4359.469c.024.037.038.074.062.111a.988.988,0,0,0,.038.1.737.737,0,0,0,.087.174.23.23,0,0,0,.049.074h0a.045.045,0,0,0,.013.038c0,.024.011.037.011.05s.013.037.026.05a.062.062,0,0,1,.023.037.234.234,0,0,0,.039.05c0,.012.012.025.024.037v.013c0,.012.013.012.013.025s-.013,0-.013.011h-.013c0,.013-.012.013-.012.025s-.024.013-.039.013-.012.012-.023.012l-.013.013c-.024,0-.05.025-.063.037s-.012.025-.023.037-.013.012-.024.025,0,.024-.013.024a.012.012,0,0,1-.013.012h-.026l-.011-.012a.041.041,0,0,0-.025-.012.1.1,0,0,0-.05-.025h-.036c-.013-.012-.013-.012-.026-.012h-.024c-.013,0-.013-.012-.026-.012h-.036c-.013-.012-.013-.012-.024-.012s-.013-.013-.026-.013-.024-.012-.05-.012h-.023c-.013,0-.013-.013-.026-.013a.035.035,0,0,1-.024-.013c-.013,0-.024-.013-.038-.013s-.012-.012-.024-.012-.013-.013-.026-.013a.044.044,0,0,0-.036-.012.253.253,0,0,0-.1-.05.628.628,0,0,0-.2-.112.5.5,0,0,0-.111-.062.975.975,0,0,0-.161-.086.586.586,0,0,0-.125-.062.821.821,0,0,0-.1-.062.266.266,0,0,0-.061-.038.832.832,0,0,0-.163-.124l-.036-.037a.253.253,0,0,1-.063-.05c-.05-.049-.1-.087-.149-.136l-.062-.062c-.037-.038-.086-.075-.125-.112-.023-.024-.047-.05-.073-.074l-.013-.013c-.024-.025-.05-.049-.073-.075a.245.245,0,0,0-.039-.061c-.023-.025-.036-.05-.061-.076s-.05-.086-.088-.136-.062-.1-.1-.162l-.075-.112-.111-.148c-.038-.075-.075-.137-.112-.2a.726.726,0,0,0-.073-.1.307.307,0,0,0-.063-.1.514.514,0,0,0-.062-.112,1.316,1.316,0,0,1-.075-.136c-.013-.013-.024-.037-.038-.05s-.024-.062-.036-.086-.013-.037-.025-.049-.013-.024-.013-.038-.024-.049-.037-.074-.012-.038-.023-.062-.039-.086-.051-.136-.048-.124-.074-.187v-.038c.012-.013.038-.025.049-.037a.038.038,0,0,1,.025.012c.051.012.087.038.138.049a.043.043,0,0,0,.036.013.768.768,0,0,0,.175.1c.012,0,.024,0,.024.013.036.012.062.037.1.049a.61.61,0,0,1,.086.049.854.854,0,0,0,.125.062c.023.013.049.039.073.051s.075.037.112.05l.074.036a1.865,1.865,0,0,0,.224.1,1.339,1.339,0,0,0,.186.1c.037.024.086.05.125.075a.97.97,0,0,0,.124.062.743.743,0,0,0,.187.112.519.519,0,0,0,.135.087c0,.012.013.012.026.025a.671.671,0,0,1,.1.062.98.98,0,0,0,.125.1.693.693,0,0,0,.1.075c.013.024.037.037.063.063s.036.037.061.062l.038.037.075.074c.024.024.037.049.062.074s.05.063.075.1a1.168,1.168,0,0,0,.112.137c0,.012.013.024.013.037.025.037.049.075.086.125a.868.868,0,0,0,.086.149.5.5,0,0,0,.075.124.348.348,0,0,1,.038.063.069.069,0,0,0,.024.05C4892.165,4359.407,4892.178,4359.433,4892.189,4359.469Z" transform="translate(-4889 -4357)" clip-rule="evenodd"/>
    </clipPath>
    <radialGradient id="radial-gradient-28" cx="0.492" cy="0.492" r="0.694" gradientTransform="matrix(0.669, 0.721, -0.209, 0.208, 0.265, 0.035)" xlink:href="#radial-gradient"/>
    <radialGradient id="radial-gradient-29" cx="0.498" cy="0.502" r="0.723" gradientTransform="matrix(0.663, 0.721, -0.084, 0.085, 0.211, 0.098)" xlink:href="#radial-gradient-2"/>
    <radialGradient id="radial-gradient-30" cx="0.504" cy="0.52" r="0.698" gradientTransform="matrix(0.672, 0.721, -0.117, 0.116, 0.225, 0.099)" xlink:href="#radial-gradient-3"/>
    <clipPath id="clip-path-11">
      <path id="Path_68" data-name="Path 68" d="M5131.178,4237.972a.44.44,0,0,0-.049.111c-.013.037-.024.075-.038.113a.407.407,0,0,0-.05.174.123.123,0,0,0-.023.086h0c-.014.012-.026.024-.026.037s-.026.037-.026.05a.12.12,0,0,0-.011.062.043.043,0,0,0-.013.037.079.079,0,0,0-.012.05c0,.024-.013.037-.013.049v.013l-.012.011a.013.013,0,0,0-.013.014h-.013a.04.04,0,0,0-.026-.014h-.036c-.013-.011-.013-.011-.024-.011s-.013-.013-.026-.013-.036-.012-.061-.012a.048.048,0,0,0-.039.012h-.049a.038.038,0,0,1-.024.013h-.013c-.013-.013-.013-.013-.013-.025a.012.012,0,0,0-.013-.013v-.037c0-.014-.012-.025-.023-.05a.042.042,0,0,1-.013-.024l-.024-.025c0-.012,0-.012-.013-.024a.012.012,0,0,0-.013-.012c0-.013-.013-.026-.013-.038s-.012-.012-.012-.025-.013-.013-.013-.024-.012-.025-.024-.037a.044.044,0,0,0-.012-.025c-.013-.013-.013-.013-.013-.024a.044.044,0,0,1-.013-.026.044.044,0,0,0-.013-.037.045.045,0,0,0-.012-.025c0-.013,0-.025-.013-.025a.05.05,0,0,0-.011-.038.4.4,0,0,0-.024-.111c-.026-.075-.038-.149-.063-.211s-.024-.086-.037-.125c-.024-.061-.036-.124-.062-.186-.013-.038-.024-.087-.038-.123s-.011-.076-.024-.113-.011-.05-.011-.074a1.31,1.31,0,0,0-.039-.2v-.137a1.177,1.177,0,0,0-.011-.2v-.087a.688.688,0,0,0-.012-.161v-.137a.256.256,0,0,0,.012-.1.171.171,0,0,0,.011-.075c0-.024.013-.062.013-.086a.609.609,0,0,0,.026-.162,1.093,1.093,0,0,0,.049-.187.451.451,0,0,0,.024-.123.5.5,0,0,0,.038-.2,1.04,1.04,0,0,0,.049-.211.455.455,0,0,0,.026-.124l.037-.113a.343.343,0,0,0,.024-.124.334.334,0,0,0,.038-.148.1.1,0,0,0,.024-.062.179.179,0,0,0,.026-.087.1.1,0,0,0,.024-.049c0-.013.012-.025.012-.038a.6.6,0,0,0,.037-.087c0-.012.013-.025.013-.049.024-.05.05-.086.073-.136s.052-.125.076-.187a.038.038,0,0,0,.023-.013h.063c0,.013.013.013.024.025a.582.582,0,0,0,.05.137.05.05,0,0,0,.011.038,1.2,1.2,0,0,0,.062.186c0,.013,0,.013.013.025a.353.353,0,0,0,.025.112c.012.038.012.062.024.1a.5.5,0,0,0,.049.125c0,.038.013.062.013.087s.026.074.038.112a.239.239,0,0,1,.023.086,2.146,2.146,0,0,0,.088.235,1.133,1.133,0,0,0,.063.2c.012.049.024.086.036.136a.584.584,0,0,0,.05.136,1.206,1.206,0,0,0,.037.211c.013.051.026.1.038.149,0,.013.012.025.012.037,0,.038.013.075.013.125s.013.1.024.137a.487.487,0,0,0,.013.137v.333c0,.038-.013.064-.013.088,0,.049-.012.087-.012.137a.713.713,0,0,0-.025.174.043.043,0,0,0-.012.024.659.659,0,0,0-.024.149.69.69,0,0,0-.05.162c-.013.049-.024.1-.039.136a.809.809,0,0,1-.023.087c0,.012-.013.025-.013.049S5131.191,4237.934,5131.178,4237.972Z" transform="translate(-5130 -4234)" clip-rule="evenodd"/>
    </clipPath>
    <radialGradient id="radial-gradient-31" cx="0.5" cy="0.5" r="0.499" gradientTransform="matrix(-0.086, 1, -1.006, -0.008, 1.048, 0)" xlink:href="#radial-gradient"/>
    <radialGradient id="radial-gradient-32" cx="0.499" cy="0.5" r="0.5" gradientTransform="matrix(-0.216, 1, -1.031, -0.003, 1.121, 0.003)" xlink:href="#radial-gradient-2"/>
    <radialGradient id="radial-gradient-33" cx="0.489" cy="0.504" r="0.5" gradientTransform="matrix(-0.154, 1, -1.001, -0.004, 1.058, 0.022)" xlink:href="#radial-gradient-3"/>
    <clipPath id="clip-path-12">
      <path id="Path_73" data-name="Path 73" d="M5203.968,4356.178a.411.411,0,0,0-.112.049c-.037.012-.062.024-.1.038a.776.776,0,0,0-.173.086.121.121,0,0,0-.062.051h-.013a.046.046,0,0,0-.038.013c-.025,0-.037.012-.049.012s-.038.013-.05.024-.025.013-.037.025a.156.156,0,0,0-.05.037c-.013,0-.025.012-.038.024h-.037a.012.012,0,0,1-.012-.013c-.012,0-.012-.012-.024-.024s-.014-.012-.014-.024-.012-.013-.012-.025,0-.012-.012-.024-.013-.036-.038-.05l-.025-.025c-.013-.012-.025-.024-.038-.024s-.012-.012-.025-.012a.012.012,0,0,0-.012-.013v-.024l.012-.013c0-.014.013-.026.013-.038s.024-.024.024-.037.012-.024.012-.037v-.024c0-.013.013-.024.013-.037v-.012c0-.014.012-.026.012-.039V4356a.013.013,0,0,0,.013-.013.1.1,0,0,0,.012-.051c0-.011.013-.024.013-.037v-.012c.013-.013.013-.013.013-.024s.012-.025.024-.037,0-.024.014-.024,0-.026.012-.026a.043.043,0,0,1,.012-.035c.012-.039.037-.063.049-.1a.62.62,0,0,0,.112-.2.53.53,0,0,0,.063-.11.775.775,0,0,0,.086-.176.482.482,0,0,0,.062-.11.713.713,0,0,0,.063-.1.321.321,0,0,0,.037-.062,1.221,1.221,0,0,0,.123-.148.187.187,0,0,1,.038-.05.222.222,0,0,0,.049-.062,1.477,1.477,0,0,0,.137-.149.158.158,0,0,0,.063-.062,1.078,1.078,0,0,0,.11-.124c.026-.025.052-.05.075-.074.012,0,.012,0,.024-.013s.05-.038.076-.062.037-.037.063-.049a.435.435,0,0,0,.063-.05,1.432,1.432,0,0,0,.136-.088,1.7,1.7,0,0,0,.161-.111.407.407,0,0,0,.124-.062l.15-.112c.074-.037.136-.074.2-.112a.818.818,0,0,0,.1-.073.265.265,0,0,0,.1-.062.448.448,0,0,0,.112-.062.8.8,0,0,0,.137-.073c.012-.013.037-.013.049-.024a.2.2,0,0,0,.086-.051c.013,0,.038-.013.05-.013s.024-.013.037-.024.063-.013.086-.037c.012,0,.026-.013.05-.013a1.177,1.177,0,0,0,.137-.062,1.152,1.152,0,0,0,.186-.062h.037l.037.037v.038a.644.644,0,0,0-.062.136.049.049,0,0,1-.012.025,1.178,1.178,0,0,0-.1.186v.025a.38.38,0,0,0-.062.1c-.013.024-.037.061-.05.086a.427.427,0,0,0-.062.125c-.011.024-.037.049-.049.073a1.049,1.049,0,0,0-.05.1c-.012.024-.024.05-.037.074a3.025,3.025,0,0,1-.211.41.646.646,0,0,0-.061.137.945.945,0,0,0-.075.124,65.532,65.532,0,0,0-.2.311c-.012.011-.012.024-.024.037s-.037.062-.062.086-.062.087-.1.125a.586.586,0,0,0-.074.1c-.026.013-.038.036-.062.062l-.062.063c-.012.011-.024.024-.037.037s-.062.05-.088.073-.037.037-.062.063l-.112.073c-.037.025-.087.063-.136.1l-.025.024a1.1,1.1,0,0,0-.124.073c-.05.026-.1.063-.149.088a1,1,0,0,0-.125.074c-.024.014-.05.025-.073.038s-.037.012-.05.024A.343.343,0,0,0,5203.968,4356.178Z" transform="translate(-5203 -4353)" clip-rule="evenodd"/>
    </clipPath>
    <radialGradient id="radial-gradient-34" cx="0.511" cy="0.489" r="0.674" gradientTransform="matrix(-0.742, 0.687, -0.211, -0.218, 0.992, 0.246)" xlink:href="#radial-gradient"/>
    <radialGradient id="radial-gradient-35" cx="0.501" cy="0.499" r="0.698" gradientTransform="matrix(-0.747, 0.687, -0.086, -0.089, 0.917, 0.199)" xlink:href="#radial-gradient-2"/>
    <radialGradient id="radial-gradient-36" cx="0.48" cy="0.499" r="0.682" gradientTransform="matrix(-0.738, 0.687, -0.117, -0.121, 0.897, 0.229)" xlink:href="#radial-gradient-3"/>
    <clipPath id="clip-path-13">
      <path id="Path_78" data-name="Path 78" d="M5218.793,4594.166l-.112-.038c-.037-.012-.062-.037-.1-.037a.562.562,0,0,0-.187-.062.092.092,0,0,0-.075-.024h-.012c-.012-.013-.024-.024-.037-.024s-.024-.013-.05-.025-.036-.013-.05-.013a.046.046,0,0,0-.037-.012.1.1,0,0,0-.062-.014c-.012,0-.024-.012-.049-.012h0c-.012,0-.012-.012-.024-.012v-.049a.049.049,0,0,0,.012-.037c0-.013.012-.013.012-.026v-.024a.1.1,0,0,0,.025-.062c0-.013-.014-.026-.014-.038a.05.05,0,0,0-.011-.038v-.05a.011.011,0,0,1,.011-.012h.026a.037.037,0,0,1,.024-.012.068.068,0,0,0,.051-.024c.012,0,.024-.013.037-.013a.048.048,0,0,1,.025-.013c0-.013.012-.013.024-.025s.013,0,.013-.012a.045.045,0,0,0,.037-.012.044.044,0,0,1,.025-.013.042.042,0,0,1,.024-.013c.013,0,.025-.012.038-.024s.012-.012.026-.012.011-.013.011-.013.025,0,.025-.011c.024,0,.037,0,.049-.012s.012,0,.025-.013h.025c.012-.012.024-.012.036-.024a.366.366,0,0,0,.112-.025,1.048,1.048,0,0,0,.211-.062c.049-.013.087-.025.123-.038a.947.947,0,0,0,.186-.05l.125-.036c.037-.014.074-.014.111-.025a.165.165,0,0,1,.076-.012.976.976,0,0,0,.186-.037h.148a1.048,1.048,0,0,0,.2-.013h.088a.634.634,0,0,0,.16-.013.338.338,0,0,0,.112.013h.025c.024,0,.061.013.1.013h.073a.228.228,0,0,0,.087.011.569.569,0,0,0,.162.038,1.08,1.08,0,0,0,.186.05.5.5,0,0,0,.125.025l.186.037a1.391,1.391,0,0,0,.223.05.979.979,0,0,1,.236.062.359.359,0,0,0,.111.025.711.711,0,0,0,.163.049.46.46,0,0,0,.062.013.494.494,0,0,0,.087.037c.012,0,.024.013.049.013s.025.013.037.025a.184.184,0,0,0,.075.024c.024.013.037.013.061.025a.468.468,0,0,0,.137.061,1.132,1.132,0,0,0,.173.087.244.244,0,0,1,.025.025v.049l-.025.025a1.116,1.116,0,0,0-.136.05.051.051,0,0,1-.038.011c-.062.026-.137.038-.2.063,0,.013-.012.013-.025.013-.037.012-.062.024-.1.038a.241.241,0,0,0-.1.024c-.049.012-.085.025-.135.037a.365.365,0,0,0-.087.023.381.381,0,0,0-.113.026.16.16,0,0,1-.073.024,1.378,1.378,0,0,0-.236.088.869.869,0,0,0-.2.063l-.148.037c-.038.011-.088.024-.138.037a1.583,1.583,0,0,0-.21.05.666.666,0,0,0-.15.037h-.037c-.038.012-.074.012-.111.025s-.1.012-.15.012-.086.013-.124.013a.275.275,0,0,0-.1.012.208.208,0,0,0-.087,0,.094.094,0,0,0-.062-.012h-.1a.206.206,0,0,1-.087-.013c-.038,0-.087-.012-.124-.012a.954.954,0,0,0-.173-.025c-.012,0-.025-.011-.038-.011a.568.568,0,0,0-.149-.026.574.574,0,0,0-.161-.05.456.456,0,0,0-.136-.037.178.178,0,0,0-.075-.025c-.025-.012-.037-.012-.062-.025A.74.74,0,0,0,5218.793,4594.166Z" transform="translate(-5218 -4592.999)" clip-rule="evenodd"/>
    </clipPath>
    <radialGradient id="radial-gradient-37" cx="0.499" cy="0.499" r="1.671" gradientTransform="matrix(-0.299, -0.032, 0.003, -0.3, 0.648, 0.662)" xlink:href="#radial-gradient"/>
    <radialGradient id="radial-gradient-38" cx="0.501" cy="0.503" r="4.321" gradientTransform="matrix(-0.115, -0.032, 0, -0.122, 0.558, 0.574)" xlink:href="#radial-gradient-2"/>
    <radialGradient id="radial-gradient-39" cx="0.501" cy="0.469" r="3.002" gradientTransform="matrix(-0.167, -0.032, 0.001, -0.167, 0.585, 0.571)" xlink:href="#radial-gradient-3"/>
    <clipPath id="clip-path-14">
      <path id="Path_83" data-name="Path 83" d="M5197.359,4665.968a.458.458,0,0,0-.049-.111c-.013-.038-.025-.062-.038-.1a.743.743,0,0,0-.086-.173c0-.025-.024-.049-.037-.075h0c0-.011-.012-.037-.012-.048s-.012-.025-.026-.051a.1.1,0,0,0-.024-.05c0-.012-.012-.024-.012-.037a.191.191,0,0,1-.038-.05.054.054,0,0,0-.025-.037h0c0-.013,0-.026-.012-.026a.011.011,0,0,0,.012-.011l.014-.012a.037.037,0,0,1,.024-.013l.024-.026h.025c.012-.011.012-.011.025-.011s.037-.025.062-.038c0-.012.012-.024.012-.037a.027.027,0,0,0,.025-.024.041.041,0,0,0,.012-.024c.013-.013.013-.013.025-.013h.012a.013.013,0,0,1,.013.013c.012,0,.025.011.037.011s.025.024.037.024a.046.046,0,0,0,.038.013h.037c0,.013.012.013.025.013h.025a.047.047,0,0,0,.038.012.043.043,0,0,0,.024.012.039.039,0,0,1,.025.013c.012,0,.025.013.037.013h.038a.012.012,0,0,0,.012.012c.013,0,.013.011.025.011s.025.013.038.013a.037.037,0,0,0,.024.013.039.039,0,0,0,.026.013c.012.012.023.012.037.023.038.013.063.037.1.05a.609.609,0,0,0,.2.112.5.5,0,0,0,.111.063.761.761,0,0,0,.162.1.51.51,0,0,0,.112.062.419.419,0,0,0,.1.063.264.264,0,0,0,.063.048.99.99,0,0,0,.148.112c.012.025.038.038.05.05s.038.037.063.049a.693.693,0,0,0,.136.137l.063.063a1.152,1.152,0,0,0,.125.125l.074.074a.012.012,0,0,0,.013.012.355.355,0,0,0,.062.087c.012.013.024.037.049.063a.251.251,0,0,0,.05.062.492.492,0,0,0,.087.137,1.061,1.061,0,0,0,.1.173.492.492,0,0,0,.063.111,1.153,1.153,0,0,0,.111.162.742.742,0,0,0,.112.186.521.521,0,0,0,.062.112.259.259,0,0,0,.063.1c.013.037.037.074.049.112s.05.087.074.136c.012.024.025.037.038.062l.036.075a.065.065,0,0,0,.025.05.046.046,0,0,0,.013.038c.013.037.013.062.025.086s.025.038.025.05c.013.051.037.1.049.15a1.157,1.157,0,0,0,.075.186.048.048,0,0,0-.012.037l-.038.038c-.012,0-.025-.012-.037-.012a1.313,1.313,0,0,0-.137-.062.042.042,0,0,0-.024-.013,1.439,1.439,0,0,0-.187-.1.039.039,0,0,1-.024-.013c-.025-.012-.062-.037-.088-.05a.746.746,0,0,0-.085-.049,1.084,1.084,0,0,1-.124-.074l-.075-.038a.406.406,0,0,0-.1-.061l-.075-.038a.9.9,0,0,0-.223-.111,1.507,1.507,0,0,0-.186-.112c-.037-.024-.086-.049-.125-.074s-.087-.037-.123-.062a1.822,1.822,0,0,0-.186-.123,1.134,1.134,0,0,0-.125-.087c-.012,0-.024-.013-.038-.024s-.062-.037-.085-.062a1.215,1.215,0,0,0-.125-.1c-.024-.025-.062-.05-.087-.075l-.062-.061c-.024-.026-.05-.05-.061-.062s-.038-.037-.05-.05-.038-.049-.064-.075-.035-.049-.061-.074a.531.531,0,0,0-.075-.112.907.907,0,0,0-.1-.136.028.028,0,0,0-.025-.026.369.369,0,0,0-.075-.136l-.074-.148c-.025-.038-.05-.087-.075-.124l-.037-.075c0-.013-.013-.024-.013-.05A.267.267,0,0,1,5197.359,4665.968Z" transform="translate(-5197 -4665)" clip-rule="evenodd"/>
    </clipPath>
    <radialGradient id="radial-gradient-40" cx="0.508" cy="0.508" r="0.674" gradientTransform="matrix(-0.683, -0.742, 0.227, -0.202, 0.74, 0.989)" xlink:href="#radial-gradient"/>
    <radialGradient id="radial-gradient-41" cx="0.499" cy="0.502" r="0.703" gradientTransform="matrix(-0.679, -0.742, 0.092, -0.082, 0.794, 0.912)" xlink:href="#radial-gradient-2"/>
    <radialGradient id="radial-gradient-42" cx="0.5" cy="0.482" r="0.682" gradientTransform="matrix(-0.692, -0.742, 0.128, -0.112, 0.783, 0.906)" xlink:href="#radial-gradient-3"/>
    <clipPath id="clip-path-15">
      <path id="Path_88" data-name="Path 88" d="M5126.272,4679.793a.4.4,0,0,0,.05-.111.429.429,0,0,0,.05-.1,1.116,1.116,0,0,0,.062-.187.161.161,0,0,0,.025-.074h0c0-.012.012-.037.012-.049a.067.067,0,0,0,.026-.05.068.068,0,0,0,.023-.05v-.038c.012-.025.026-.037.026-.062v-.037c0-.013,0-.013.011-.013s0-.013.013-.025h.024c.012,0,.012,0,.025.012h.037c0,.013.012.013.025.013l.013.013a.162.162,0,0,0,.073.012h.038c.012,0,.025-.012.038-.012s.024,0,.024-.013.013.013.025.013l.012.012v.012a.046.046,0,0,0,.012.037.072.072,0,0,0,.013.05c.013.012.013.025.024.025s0,.025.013.025a.045.045,0,0,0,.012.025c0,.013.013.013.013.024a.064.064,0,0,0,.023.038.037.037,0,0,0,.013.024v.012c.013.024.013.038.024.05s.012.013.025.024v.013a.046.046,0,0,0,.013.025.079.079,0,0,0,.012.049.04.04,0,0,0,.012.025c0,.012,0,.012.013.025a.043.043,0,0,0,.013.037.347.347,0,0,0,.024.112,1.006,1.006,0,0,0,.062.21.379.379,0,0,0,.024.125c.013.061.038.124.05.186.012.036.025.086.038.124a.375.375,0,0,1,.024.112.151.151,0,0,1,.013.075c.012.062.012.137.024.2a.129.129,0,0,0,.013.063v.359a.8.8,0,0,0,.013.174.238.238,0,0,0-.013.1v.024c0,.038-.013.062-.013.1s-.012.05-.012.075-.012.063-.012.087c-.013.05-.025.112-.038.162s-.025.123-.038.185a.247.247,0,0,0-.037.125.954.954,0,0,0-.037.187,1.431,1.431,0,0,0-.062.223.343.343,0,0,0-.024.124c-.013.037-.026.075-.038.111a.388.388,0,0,0-.025.112.7.7,0,0,0-.049.149.486.486,0,0,1-.013.062.523.523,0,0,1-.037.087c-.012.025-.012.038-.025.062s-.012.026-.012.038-.026.049-.038.075-.012.037-.012.049a1.185,1.185,0,0,1-.075.136c-.025.063-.062.124-.086.186a.045.045,0,0,1-.025.012h-.05c-.012-.012-.026-.012-.026-.024a.55.55,0,0,0-.049-.137c0-.011-.012-.024-.012-.037-.013-.062-.038-.123-.062-.2v-.012c-.011-.037-.025-.074-.037-.111a.25.25,0,0,0-.024-.1c-.014-.048-.026-.086-.039-.136,0-.024-.012-.05-.012-.087s-.024-.075-.038-.112-.012-.049-.024-.074c-.025-.087-.05-.161-.074-.236s-.037-.136-.063-.21c-.012-.038-.024-.088-.037-.137s-.024-.087-.037-.136a1.318,1.318,0,0,0-.049-.211.607.607,0,0,0-.026-.148.049.049,0,0,0-.012-.038.425.425,0,0,0-.012-.124c0-.05-.013-.1-.013-.149s-.013-.088-.013-.125v-.335a.237.237,0,0,0,.013-.087.493.493,0,0,0,.025-.135.786.786,0,0,0,.024-.175c0-.013.013-.026.013-.037.012-.038.025-.088.037-.137s.037-.111.05-.161.025-.1.037-.137a.846.846,0,0,0,.026-.086c0-.013.012-.024.012-.05C5126.26,4679.869,5126.26,4679.832,5126.272,4679.793Z" transform="translate(-5125.999 -4679)" clip-rule="evenodd"/>
    </clipPath>
    <radialGradient id="radial-gradient-43" cx="0.487" cy="0.5" r="0.499" gradientTransform="matrix(0.159, -0.999, 1.014, 0.014, -0.096, 0.983)" xlink:href="#radial-gradient"/>
    <radialGradient id="radial-gradient-44" cx="0.512" cy="0.498" r="0.499" gradientTransform="matrix(0.409, -0.999, 1.059, 0.006, -0.227, 1.006)" xlink:href="#radial-gradient-2"/>
    <radialGradient id="radial-gradient-45" cx="0.524" cy="0.498" r="0.5" gradientTransform="matrix(0.274, -0.999, 0.969, 0.008, -0.102, 1.019)" xlink:href="#radial-gradient-3"/>
    <clipPath id="clip-path-16">
      <path id="Path_93" data-name="Path 93" d="M4885.606,4660.334a.439.439,0,0,0,.111-.049.2.2,0,0,0,.112-.037.522.522,0,0,0,.174-.074l.074-.038h0c.013,0,.025-.012.037-.012s.038-.013.062-.025.026-.013.05-.024a.044.044,0,0,0,.025-.013c.024-.012.038-.024.062-.038a.064.064,0,0,0,.038-.024h.037a.012.012,0,0,0,.012.013c0,.011.012.011.012.025s.013.024.025.037v.024l.012.012c0,.024.025.049.038.063l.025.024c.013.012.025.012.037.025s.013.012.025.012l.013.012c0,.013,0,.013-.013.025v.012l-.025.025c-.012.012-.012.038-.024.05v.037c-.013.012-.013.012-.013.024v.025c-.013.012-.013.012-.013.024s-.012.025-.012.038,0,.012-.012.024v.025c-.013.011-.013.024-.025.048v.025l-.012.012c0,.013,0,.025-.012.025s-.013.025-.013.038a.047.047,0,0,0-.012.037c-.012,0-.012.013-.012.024l-.026.025c-.011.038-.037.063-.049.1a1.067,1.067,0,0,0-.123.2.5.5,0,0,0-.063.113.8.8,0,0,0-.1.16.546.546,0,0,0-.062.112.3.3,0,0,0-.061.1.2.2,0,0,0-.051.05.89.89,0,0,0-.124.162l-.037.037-.062.063a1.371,1.371,0,0,0-.136.136l-.062.062-.124.125c-.025.025-.051.038-.075.062,0,.013-.011.013-.011.025a.226.226,0,0,0-.088.062c-.024.013-.037.025-.063.038s-.049.037-.074.05a1.293,1.293,0,0,1-.137.086,1.07,1.07,0,0,0-.16.1.352.352,0,0,0-.125.063c-.05.024-.1.061-.161.1l-.187.113a.505.505,0,0,0-.111.062c-.038.025-.075.038-.111.063s-.063.037-.1.049a1.38,1.38,0,0,0-.137.075c-.026.012-.038.024-.063.024s-.062.025-.086.038-.038.012-.049.026-.026.011-.038.011a.716.716,0,0,1-.087.038c-.012,0-.024.012-.05.012a.685.685,0,0,1-.149.05c-.061.024-.124.038-.186.062h-.025a.152.152,0,0,1-.037-.049v-.024a.737.737,0,0,0,.062-.137.2.2,0,0,0,.024-.025c.038-.062.063-.123.1-.186,0,0,0-.013.012-.013a.84.84,0,0,1,.049-.1.544.544,0,0,1,.063-.088.582.582,0,0,0,.062-.123.316.316,0,0,0,.05-.075.705.705,0,0,0,.061-.1c.012-.026.025-.05.038-.075a.943.943,0,0,0,.111-.224.838.838,0,0,0,.111-.174,1.1,1.1,0,0,1,.076-.124,1.179,1.179,0,0,1,.073-.125,1.643,1.643,0,0,0,.125-.172c.024-.05.062-.088.087-.137,0,0,.012-.012.024-.025a.4.4,0,0,0,.063-.1.787.787,0,0,0,.1-.112.3.3,0,0,0,.086-.1c.026-.011.038-.037.063-.061s.038-.038.063-.062.037-.025.05-.037a.314.314,0,0,1,.074-.062c.025-.025.049-.037.075-.062a.3.3,0,0,0,.112-.075c.048-.024.086-.062.136-.086a.332.332,0,0,1,.024-.024c.049-.025.087-.051.137-.075l.147-.074a1.141,1.141,0,0,0,.125-.075c.024-.013.05-.025.075-.038s.038-.012.05-.012A.775.775,0,0,0,4885.606,4660.334Z" transform="translate(-4883 -4660)" clip-rule="evenodd"/>
    </clipPath>
    <radialGradient id="radial-gradient-46" cx="0.489" cy="0.512" r="0.699" gradientTransform="matrix(0.716, -0.658, 0.188, 0.226, 0.043, 0.717)" xlink:href="#radial-gradient"/>
    <radialGradient id="radial-gradient-47" cx="0.501" cy="0.501" r="0.726" gradientTransform="matrix(0.715, -0.658, 0.077, 0.092, 0.105, 0.783)" xlink:href="#radial-gradient-2"/>
    <radialGradient id="radial-gradient-48" cx="0.521" cy="0.502" r="0.709" gradientTransform="matrix(0.713, -0.658, 0.104, 0.126, 0.097, 0.781)" xlink:href="#radial-gradient-3"/>
  </defs>
  <g id="Layer_x0020_1" transform="translate(-649 -995.896)">
    <path id="Path_1" data-name="Path 1" d="M2048.744,1025.175c0-1.44-.72-8.228-.992-10.276l-.372-2.817c-.335-2.172-.571-4.58-1.688-6.442a2.51,2.51,0,0,0-1.886-1.378,1.923,1.923,0,0,0-1.44.732c-1.278,1.266-1.365,3.45-1.365,5.374v11.393c0,1.9.062,3.612.062,5.5,0,.509.062.794.062,1.279s-.012.943-.012,1.415l.062,1.341c0,.521.062.894.062,1.34-.012,1.812.112,3.636.112,5.448,0,1.862-.013,3.736-.013,5.61,0,.31.05.36.062.608.087,1.576-.124,3.314.05,4.84l.063,4.815a26.312,26.312,0,0,0,.335,3.14c.136.844.273,1.563.459,2.346a35.81,35.81,0,0,0,1.365,4.232,27.745,27.745,0,0,0,4.133,7.037l1.948,2.209a28.88,28.88,0,0,0,15.389,8.328,30.137,30.137,0,0,0,12.424-.286c.993-.248,1.849-.521,2.767-.819.435-.149.881-.335,1.3-.5a26.794,26.794,0,0,0,3.648-1.787l1.117-.683c.4-.248.72-.484,1.1-.745a20.686,20.686,0,0,0,2.023-1.576,22.515,22.515,0,0,0,2.122-1.961l.646-.695c.1-.112.1-.149.2-.261l.422-.472a29.99,29.99,0,0,0,4.915-8.216,28.325,28.325,0,0,0,1.662-14.992c-.074-.385-.211-.447-.558-.633a5.264,5.264,0,0,0-.807-.36,3.974,3.974,0,0,0-5.15,1.315,7.861,7.861,0,0,0-.5.745c-.236.385-.261.347-.186.906a21.109,21.109,0,0,1-.993,9.308c-.112.36-.236.67-.36.981a17.4,17.4,0,0,1-1.291,2.743,24.435,24.435,0,0,1-1.6,2.445c-.111.149-.174.236-.285.385s-.2.224-.311.36l-2.668,2.718-1.117.906a21.406,21.406,0,0,1-12.534,4.294,22.716,22.716,0,0,1-7.571-1.192,22.135,22.135,0,0,1-3.674-1.651,19.842,19.842,0,0,1-3.86-2.817l-.708-.633a22.927,22.927,0,0,1-3.463-4.505,21.035,21.035,0,0,1-2.942-10.413,22.893,22.893,0,0,1,.621-5.821,20.374,20.374,0,0,1,.608-2.023c.261-.645.484-1.315.794-1.911a23.8,23.8,0,0,1,3.1-4.865l1.614-1.688c.683-.6.981-.931,1.812-1.552a19.208,19.208,0,0,1,4.169-2.507c.634-.273,1.2-.521,1.887-.757a21.981,21.981,0,0,1,16.618.956l1.24.67a19.694,19.694,0,0,1,3.847,2.78,14.011,14.011,0,0,1,1.44,1.415c.149.186.273.285.434.459a17.509,17.509,0,0,1,1.242,1.626,9.913,9.913,0,0,0,.843,1.055,3.95,3.95,0,0,0,1.515.385,3.75,3.75,0,0,0,2.631-1.08c1.229-1.2,1.092-3.488.6-4.99a4.636,4.636,0,0,0-.93-1.489l-1.713-1.874a28.659,28.659,0,0,0-3.959-3.289,30.343,30.343,0,0,0-7.21-3.661,29.612,29.612,0,0,0-5.9-1.353,30.123,30.123,0,0,0-4.6-.211l2.545-5.424c1.042-2.048,2.135-4.679,3.177-6.752,1.116-2.222,2.122-4.518,3.239-6.739.112-.248.186-.422.3-.658.112-.261.186-.385.3-.708a5.628,5.628,0,0,0-1.974-6.317c-.745-.546-2.221-1.241-2.879-.161l-4.555,8.005c-.1.186-.149.31-.249.484l-1.824,3.338c-.111.211-.173.31-.285.5l-7.335,13.429c-.087.186-.162.286-.261.459l-1.564,2.867c-.074.124-.074.111-.148.248l-.149.236c.05-.621,2.719-11.294,2.818-11.7l2.184-8.75a13.334,13.334,0,0,0,.546-3.835c0-4.865-4.878-7.658-5.982-5.076-.124.285-.211.62-.311.918l-.893,2.8c-.2.6-.41,1.266-.608,1.874-.807,2.532-1.6,4.977-2.321,7.533l-4,13.28c-.1.335-.211.658-.3.943C2049.03,1024.479,2048.918,1025.051,2048.744,1025.175Z" transform="translate(-1374.724 0)" fill="#fff" fill-rule="evenodd"/>
    <path id="Path_2" data-name="Path 2" d="M3837.6,4481.094a21.232,21.232,0,0,1-7.521,1.029c-1.378-.012-2.768-.075-4.146-.161-1.266-.087-2.718-.31-3.934-.335a10.845,10.845,0,0,0,2.221,1.887,10.237,10.237,0,0,0,2.743,1.34,13.336,13.336,0,0,0,10.152-.906,16.374,16.374,0,0,0,3.388-2.284,64.307,64.307,0,0,1,8.862-6.057,47.717,47.717,0,0,1,7.013-3.251c.273-.1.5-.162.745-.26a37.207,37.207,0,0,1,9.419-1.974c.41.013.633-.037.957-.05.434-.011.633.063,1.017.063a1.874,1.874,0,0,0,.211-1.228c-.111-.671-1.079-1.2-1.625-1.4a5.806,5.806,0,0,0-2.656-.149,44.754,44.754,0,0,0-10.363,3.152c-.384.15-.694.286-1.067.448l-5.461,2.792c-.174.1-.261.174-.446.273-.981.6-1.8,1.154-2.743,1.812-1.278.881-3,2.321-4.17,3.29a23.168,23.168,0,0,1-2.072,1.675A4.241,4.241,0,0,0,3837.6,4481.094Z" transform="translate(-3133.62 -3428.292)" fill="#fff" fill-rule="evenodd"/>
    <path id="Path_3" data-name="Path 3" d="M3758.736,5852.373c.074.46-.236.3-.583,1.031-.4.843-.148.31-.472.707a1.8,1.8,0,0,1-.161.236c-.187.721-.038.808.286,1.328a8.3,8.3,0,0,0,3.152,2.4,10.687,10.687,0,0,0,13.229-3.053c.074-.1.1-.161.187-.262a8.234,8.234,0,0,0,1.539-3.623,2.535,2.535,0,0,0-.173-1.552c-.062-.075-.161-.186-.3-.1s-.075.137-.1.347a6.3,6.3,0,0,1-.211.744,7.357,7.357,0,0,1-1.638,2.073c-.149.125-.323.274-.484.41a4.4,4.4,0,0,1-.533.422,8.326,8.326,0,0,1-2.47,1.292,10.691,10.691,0,0,1-6.479.061c-3.09-1.029-3.512-2.47-3.947-2.556A1.408,1.408,0,0,0,3758.736,5852.373Z" transform="translate(-3069.859 -4793.317)" fill="#ec1b24" fill-rule="evenodd"/>
    <path id="Path_4" data-name="Path 4" d="M4835,8354.058c0,.845.77.472,1.056,1.3a19.335,19.335,0,0,1,.111,5.364c-.161.816-.881.507-.881,1.3,0,1.217,3.984,1.217,3.984,0,0-1.093-1.191,0-.968-2.755.037-.384,0-.895.4-.895a11.468,11.468,0,0,1,2.37,1.962l.683.607c.124.124.2.15.335.286.372.346,1.7,1.688,2.11,1.688.446,0,.6-.237.72-.572a5.738,5.738,0,0,0,.173-1.167c.111-1.328-.112-4.308.037-5.349.063-.409.087-.819.361-.979.508-.324.683-.186.683-.907,0-.868-1.949-.719-2.645-.719-.546,0-1.29.211-1.29.719,0,.459-.038.448.508.794a.8.8,0,0,1,.423.634,9.692,9.692,0,0,1,.073.979c-.073,1.366-.807.511-1.327.052l-2.085-1.851c-1.662-1.317-.906-1.327-3.2-1.327C4835.955,8353.228,4835,8353.426,4835,8354.058Z" transform="translate(-4134.046 -7266.01)" fill="#fff" fill-rule="evenodd"/>
    <path id="Path_5" data-name="Path 5" d="M7511,8353.8c0,.5.1.52.558.779a.926.926,0,0,1,.521.658,19.635,19.635,0,0,1,.1,5.129c-.149,1.064-.893.533-.893,1.451,0,1.18,3.983,1.266,3.983-.051a.744.744,0,0,0-.273-.521c-.534-.41-.745-.236-.745-1.949,0-2.2,1.229-.559,1.875-.023l2.967,2.707c.371.336.77.732,1.166.732.67,0,.781-.969.781-1.678a8.821,8.821,0,0,0,.05-1.178,30.02,30.02,0,0,1,.074-4.643c.211-1.006,1-.42,1-1.414,0-.957-1.861-.781-2.642-.781-.709,0-1.5.27-1.292,1,.16.637.957.3.957,1.453,0,1.242.159,2.225-1.591.475l-.582-.535c-.137-.135-.187-.135-.31-.262l-1.49-1.314c-1.043-.969-.992-.818-2.594-.818C7511.993,8353.018,7511,8353.215,7511,8353.8Z" transform="translate(-6776.836 -7265.8)" fill="#fff" fill-rule="evenodd"/>
    <path id="Path_6" data-name="Path 6" d="M3822,5080.5c1.215.024,2.667.248,3.934.335,1.378.086,2.768.148,4.146.16a21.22,21.22,0,0,0,7.521-1.03c-.087-.186-2.346-2.282-2.731-2.681l-1.179-1.067c-.087-.075-.137-.137-.223-.224a21.006,21.006,0,0,0-2.557-1.936,1.68,1.68,0,0,0-1.329-.347,5.986,5.986,0,0,0-1.712.979c-.708.533-.968.808-1.478,1.216Z" transform="translate(-3133.62 -4027.163)" fill="#ba6e2c" fill-rule="evenodd"/>
    <path id="Path_7" data-name="Path 7" d="M6655.276,8352.475c0-1.937,2.222-2.31,3.1,1.116.186.708.459,2.062-.037,2.731a.986.986,0,0,1-.87.423c-.831,0-1.316-1.032-1.563-1.639A7.246,7.246,0,0,1,6655.276,8352.475Zm-3.363.956a4.609,4.609,0,0,0,.521,2.729,4.414,4.414,0,0,0,1,1.354,5.412,5.412,0,0,0,6.256.546,4.66,4.66,0,0,0,1.875-6.193,4.69,4.69,0,0,0-1.007-1.428,4.634,4.634,0,0,0-3.71-1.438,5.018,5.018,0,0,0-4.418,2.593A4.618,4.618,0,0,0,6651.913,8353.431Z" transform="translate(-5928.409 -7261.845)" fill="#fff" fill-rule="evenodd"/>
    <path id="Path_8" data-name="Path 8" d="M5762,8353.2c0,5.846,8.265,6.6,9.494,2.259.174-.621.174-.484.571-.6.732-.212.831-1.242-.4-1.564-1.167-.322-4.394-.311-4.394.807,0,1.18.993.546,1.267.905.371.5-.137,1.924-1.764.819a3.982,3.982,0,0,1-1.3-2.9c0-.933-.025-1.962.98-2.569,1.08-.646,2.109.1,2.755.893a1.9,1.9,0,0,0,.745.659c1.141.481,2.072-.857,1.167-2.559-.646-1.215-1.267-.582-1.776-.582-.633,0-2.817-1.03-5.125.484a3.824,3.824,0,0,0-.7.545,4.726,4.726,0,0,0-1.042,1.427A4.259,4.259,0,0,0,5762,8353.2Z" transform="translate(-5049.542 -7261.277)" fill="#fff" fill-rule="evenodd"/>
    <path id="Path_9" data-name="Path 9" d="M649,8353.309a4.753,4.753,0,0,0,1.837,3.884,5.308,5.308,0,0,0,1.229.732c2.4,1.018,5.659.211,6.441-2.346.149-.508.062-.483.571-.606.621-.151.956-1.207-.41-1.564-.956-.275-4.394-.459-4.394.917,0,1.117,1.4.225,1.4,1.166,0,1.205-1.675,1.155-2.544-.309-.757-1.266-1.117-3.8.285-4.692a1.923,1.923,0,0,1,2.122.163,3.6,3.6,0,0,1,.683.707,1.98,1.98,0,0,0,.745.655,1.082,1.082,0,0,0,1.514-1.114v-.337c0-.646-.571-1.848-1.291-1.848-.335,0-.484.161-.893.161a6.806,6.806,0,0,0-4.269.062,5.644,5.644,0,0,0-.807.422,5.236,5.236,0,0,0-.695.546A4.886,4.886,0,0,0,649,8353.309Z" transform="translate(0 -7261.387)" fill="#fff" fill-rule="evenodd"/>
    <path id="Path_10" data-name="Path 10" d="M1978.877,8348.808c.4.088.484.446.682.771.125.212.72,1.142.273,1.142-2.085,0-1.986.248-1.489-.992C1978.505,8349.331,1978.555,8349.032,1978.877,8348.808Zm-4.877,5.214c0,.846,1.465.781,2.184.781,2.184,0,2.073-1.08,1.539-1.314-.223-.1-.583-.064-.459-.572a.921.921,0,0,1,.124-.273c.273-.332,2.308-.186,2.767-.123.3.025.571.149.571.5,0,.657-.782.137-.782,1,0,.97,2.644.781,3.363.781.782,0,2.184-.124,2.184-.83,0-.387,0-.523-.434-.637-.67-.183-.745-.8-1.166-1.686a53.183,53.183,0,0,0-2.507-5.016c-.422-.681-1.1-1.637-2.172-1.637a1.782,1.782,0,0,0-1.217.508c-.347.374-.335.8-.347,1.454a8.591,8.591,0,0,1-.894,2.706,16.031,16.031,0,0,1-1.8,3.523,2.48,2.48,0,0,1-.583.312A.491.491,0,0,0,1974,8354.021Z" transform="translate(-1308.555 -7257.893)" fill="#fff" fill-rule="evenodd"/>
    <path id="Path_11" data-name="Path 11" d="M3181,8353.58c0,1.1.621.012,1.328,1.527.1.223.173.408.272.633.175.434.348.818.546,1.242.347.758,2.036,4.641,2.259,4.914a1.147,1.147,0,0,0,1.315.322c.584-.236,1.08-1.574,1.377-2.209l1.775-3.611a10.189,10.189,0,0,1,1.278-2.311,3.2,3.2,0,0,1,.72-.184c.521-.162.881-1.328-1.167-1.328a7.248,7.248,0,0,0-1.886.125c-.521.148-.695.346-.695.705,0,.572.607.385.607.846a11.629,11.629,0,0,1-.967,2.344c-.335.684-.721.758-1.043-.049-.161-.4-.906-2-.906-2.184,0-.359.621-.359.621-.957,0-1.1-3.661-.918-4.555-.621C3181.534,8352.91,3181,8353.145,3181,8353.58Z" transform="translate(-2500.575 -7265.359)" fill="#fff" fill-rule="evenodd"/>
    <path id="Path_12" data-name="Path 12" d="M1526,8354.271c0,.611.806.611.968,1.281a15.877,15.877,0,0,1,.112,3.449c-.074.531.111,1.963-.3,2.4,0,0-1.154.742-.323,1.291s3.636.357,4.468-.016a.618.618,0,0,0,.459-.707c0-.742-.881-.234-.956-1.463a26.553,26.553,0,0,1-.062-3.426c.062-.545-.124-1.639.36-2.109.372-.385.658-.137.658-.807,0-1.168-3.376-.844-4.282-.633C1526.645,8353.629,1526,8353.775,1526,8354.271Z" transform="translate(-866.115 -7266.113)" fill="#fff" fill-rule="evenodd"/>
    <path id="Path_13" data-name="Path 13" d="M4094,8353.586c0,1.191,1.066.088,1.066,2.58a33.97,33.97,0,0,1-.123,4.258.751.751,0,0,1-.4.557c-1.142.834.049,1.465,1.638,1.465,1.029,0,3.2-.01,3.2-1,0-.361-.26-.486-.5-.623-.372-.211-.384-.221-.472-.719a23.786,23.786,0,0,1,.075-5.387c.261-.721.894-.371.894-1.066,0-1.354-4.58-.957-5.225-.348A.583.583,0,0,0,4094,8353.586Z" transform="translate(-3402.243 -7265.537)" fill="#fff" fill-rule="evenodd"/>
    <path id="Path_14" data-name="Path 14" d="M4184,9209.289a1.255,1.255,0,0,0,.459,1.166,1.573,1.573,0,0,0,2.631-1,1.481,1.481,0,0,0-1.354-1.451h-.384A1.446,1.446,0,0,0,4184,9209.289Z" transform="translate(-3491.127 -8110.184)" fill="#fff" fill-rule="evenodd"/>
    <path id="Path_15" data-name="Path 15" d="M3567.469,5846a2.033,2.033,0,0,0,.162-.236c.323-.4.074.137.472-.708.347-.732.658-.571.583-1.03a7.015,7.015,0,0,1-1.1-.4,3.6,3.6,0,0,1-1.7-1.328,2.444,2.444,0,0,1-.211-1.3H3565a4.7,4.7,0,0,0,.956,2.742C3566.092,5843.978,3567.271,5845.827,3567.469,5846Z" transform="translate(-2879.809 -4784.972)" fill="#13a64e" fill-rule="evenodd"/>
    <g id="_2681120103632" transform="translate(682.249 1036.047)">
      <g id="Group_10" data-name="Group 10" transform="translate(0 4.443)" clip-path="url(#clip-path)">
        <rect id="star-anise.jpg" width="21.681" height="14.456" transform="translate(-1.706 -6.893) rotate(1.501)" fill="none"/>
      </g>
      <path id="Path_17" data-name="Path 17" d="M3332.729,4589.732v-.038l.037-.074.013-.062v-.023l-.025-.013-.037-.013-.074-.013-.1-.024-.038-.024-.112-.038-.2-.062-.124-.049-.1-.038-.149-.062-.224-.049-.161-.05-.162-.037-.186-.024-.137-.025h-.137l-.149-.011-.124.011-.186.014-.15.024-.149.036-.186.038-.161.037-.162.05-.174.049-.2.063-.173.063-.149.05-.161.05-.2.05-.162.063-.124.036-.111.037-.075.024-.024.025v.05l.024.037.075.025.136.061.236.1.211.075.211.063.211.049.136.038.235.049.211.037.161.038.174.037.2.037.2.013h.187l.21-.013H3331l.2-.025.211-.037.174-.05.186-.062.173-.049.162-.05.148-.038.149-.074.187-.1.05-.038h.012l.025-.012h.024l.025-.013h.013l.011-.036v-.025l-.011-.024Z" transform="translate(-3328 -4584.558)" fill-rule="evenodd" fill="url(#radial-gradient)"/>
      <path id="Path_18" data-name="Path 18" d="M3351.049,4628.322l-.05-.038.236-.037.286-.037.3-.062.286-.038.323-.062.21-.037.336-.012h.621l.31.025.359.05.3.037.31.074.261.049.149.013.112-.037-.112.037-.26.037-.236.05-.348.088-.359.048-.348.026-.4.013h-.311l-.272.012-.36-.025-.5-.038-.421-.049-.248-.05Z" transform="translate(-3350.714 -4623.073)" fill-rule="evenodd" fill="url(#radial-gradient-2)"/>
      <path id="Path_19" data-name="Path 19" d="M3479,4634.186l.025-.086.236-.076.285-.023h.286l.335.012.4.037.273.024.186.039.224.036-.1.063-.2.049-.223.05-.3.049-.249.012h-.471l-.187-.012-.211-.026-.173-.023-.1-.05Z" transform="translate(-3477.126 -4628.999)" fill-rule="evenodd" fill="url(#radial-gradient-3)"/>
      <path id="Path_20" data-name="Path 20" d="M3516.074,4648.013,3516,4648h.559l.261.013h.236l.21.013-.137.012h-.161l-.261-.012h-.459Z" transform="translate(-3513.666 -4642.824)" fill="#f2bf7a" fill-rule="evenodd"/>
      <g id="Group_11" data-name="Group 11" transform="translate(1.452 1.539)" clip-path="url(#clip-path-2)">
        <rect id="star-anise.jpg_0" width="21.681" height="14.456" transform="matrix(0.693, 0.721, -0.721, 0.693, 4.178, -6.614)" fill="none"/>
      </g>
      <path id="Path_22" data-name="Path 22" d="M3448.4,4358.338l.024-.025.075-.037.063-.037.012-.012v-.025l-.024-.037-.05-.062-.037-.087-.025-.05-.049-.1-.1-.187-.049-.124-.038-.087-.075-.149-.111-.2-.087-.148-.087-.137-.124-.15-.075-.11-.1-.1-.1-.112-.087-.075-.148-.124-.124-.087-.124-.087-.162-.1-.149-.086-.148-.074-.149-.087-.187-.087-.174-.086-.137-.075-.148-.074-.186-.1-.149-.076-.111-.061-.111-.05-.075-.037h-.024l-.05.037v.037l.037.074.05.138.1.247.1.2.1.186.124.187.075.112.124.211.124.173.086.136.1.149.125.173.124.148.136.138.149.123.149.137.149.112.174.124.173.1.162.087.162.075.149.086.136.075.149.063.211.049.049.013.025.012h.024l.012.013.025.012.012.013.025-.013.024-.024.012-.025Z" transform="translate(-3443.548 -4353.46)" fill-rule="evenodd" fill="url(#radial-gradient-4)"/>
      <path id="Path_23" data-name="Path 23" d="M3462.012,4374.062,3462,4374l.2.137.223.174.261.174.223.161.273.186.174.125.248.236.224.211.223.223.211.236.21.286.187.235.173.273.149.211.1.111.1.063-.1-.063-.223-.161-.2-.124-.311-.187-.285-.21-.261-.223-.3-.273-.224-.224-.2-.186-.236-.262-.335-.384-.249-.323-.148-.21Z" transform="translate(-3460.338 -4372.225)" fill-rule="evenodd" fill="url(#radial-gradient-5)"/>
      <path id="Path_24" data-name="Path 24" d="M3553.025,4459.05l.062-.05.224.111.236.186.2.188.236.26.248.3.173.211.112.162.124.187-.111-.024-.174-.1-.2-.137-.236-.174-.186-.148-.186-.186-.149-.162-.137-.136-.125-.162-.1-.136-.037-.112Z" transform="translate(-3550.208 -4456.17)" fill-rule="evenodd" fill="url(#radial-gradient-6)"/>
      <path id="Path_25" data-name="Path 25" d="M3582.037,4488.062,3582,4488l.186.187.211.21.173.186.162.174.136.149-.1-.087-.111-.112-.186-.2-.162-.15-.16-.172Z" transform="translate(-3578.847 -4484.809)" fill="#f2bf7a" fill-rule="evenodd"/>
      <g id="Group_12" data-name="Group 12" transform="translate(4.443)" clip-path="url(#clip-path-3)">
        <rect id="star-anise.jpg_1" width="21.681" height="14.456" transform="translate(8.327 -1.703) rotate(91.47)" fill="none"/>
      </g>
      <path id="Path_27" data-name="Path 27" d="M3686.708,4235.739h.038l.074.025.062.013h.025l.012-.013.013-.037.012-.074.025-.1.025-.049.038-.113.062-.2.05-.125.037-.087.05-.161.062-.212.049-.161.038-.161.024-.2.012-.125.013-.137v-.272l-.025-.186-.012-.149-.038-.162-.037-.173-.037-.175-.049-.161-.05-.162-.075-.2-.049-.173-.05-.148-.05-.162-.049-.211-.062-.161-.037-.125-.037-.111-.024-.062-.025-.025-.049-.012-.038.024-.025.087-.062.124-.112.249-.075.2-.05.21-.062.225-.024.123-.049.236-.05.224-.025.149-.05.174-.024.21-.025.187.012.2.013.2v.2l.024.186.037.21.05.187.062.186.049.161.05.174.038.136.062.149.112.2.024.037.013.024.012.025v.013l.013.024v.025l.025.011.037-.011.025-.014Z" transform="translate(-3681.557 -4231)" fill-rule="evenodd" fill="url(#radial-gradient-7)"/>
      <path id="Path_28" data-name="Path 28" d="M3721.2,4254.062l.038-.062.037.234.038.286.049.311.05.273.063.322.025.211.024.347v.621l-.024.311-.05.346-.038.311-.074.311-.049.26-.013.138.026.123-.026-.123-.037-.262-.05-.236-.087-.348-.049-.348-.025-.348-.012-.4v-.323l-.012-.272.024-.361.038-.5.049-.41.05-.249Z" transform="translate(-3716.123 -4253.715)" fill-rule="evenodd" fill="url(#radial-gradient-8)"/>
      <path id="Path_29" data-name="Path 29" d="M3727.186,4383l.087.012.074.236.025.3v.273l-.013.348-.037.4-.037.262-.025.186-.049.223-.05-.088-.05-.2-.049-.223-.05-.312-.012-.236v-.47l.012-.2.012-.2.038-.174.049-.1Z" transform="translate(-3722.048 -4381.114)" fill-rule="evenodd" fill="url(#radial-gradient-9)"/>
      <path id="Path_30" data-name="Path 30" d="M3740.024,4420.062l.012-.062v.559l-.012.261v.236l-.013.2-.012-.136v-.423l.012-.223v-.235Z" transform="translate(-3734.886 -4417.655)" fill="#f2bf7a" fill-rule="evenodd"/>
      <g id="Group_13" data-name="Group 13" transform="translate(5.349 1.477)" clip-path="url(#clip-path-4)">
        <rect id="star-anise.jpg_2" width="21.681" height="14.456" transform="matrix(-0.727, 0.687, -0.687, -0.727, 10.045, 4.237)" fill="none"/>
      </g>
      <path id="Path_32" data-name="Path 32" d="M3759.1,4353.375l.025.024.037.086.037.05.013.013h.024l.025-.026.074-.037.086-.049.049-.013.1-.061.186-.087.124-.05.086-.049.15-.063.2-.111.149-.087.137-.086.162-.112.1-.086.111-.086.112-.112.075-.075.111-.148.1-.125.086-.135.1-.149.086-.149.087-.148.074-.149.1-.186.087-.174.062-.137.087-.149.1-.173.074-.162.063-.111.05-.113.037-.062v-.036l-.037-.038-.038-.013-.074.038-.136.049-.249.1-.2.1-.187.1-.2.125-.111.062-.2.137-.186.112-.136.086-.15.1-.16.125-.15.124-.136.137-.137.148-.137.138-.111.16-.124.174-.1.161-.087.175-.086.161-.087.148-.062.124-.062.149-.062.211-.012.049v.026l-.013.024-.012.012-.012.026-.013.024.013.024.024.013.025.013Z" transform="translate(-3753.651 -4348.522)" fill-rule="evenodd" fill="url(#radial-gradient-10)"/>
      <path id="Path_33" data-name="Path 33" d="M3775,4367.012l.062-.012-.137.2-.174.223-.174.26-.173.224-.187.272-.125.174-.235.249-.211.224-.224.21-.235.211-.286.211-.248.186-.26.175-.224.136-.112.1-.062.1.062-.1.162-.21.125-.2.2-.31.211-.285.224-.261.272-.3.224-.211.186-.211.273-.236.372-.322.336-.248.21-.149Z" transform="translate(-3766.489 -4365.312)" fill-rule="evenodd" fill="url(#radial-gradient-11)"/>
      <path id="Path_34" data-name="Path 34" d="M3805.563,4457.038l.038.062-.112.223-.186.224-.2.2-.249.236-.311.248-.21.174-.149.1-.186.124.012-.1.112-.174.125-.2.186-.247.149-.174.186-.186.162-.149.136-.137.162-.124.149-.1.1-.038Z" transform="translate(-3798.093 -4454.195)" fill-rule="evenodd" fill="url(#radial-gradient-12)"/>
      <path id="Path_35" data-name="Path 35" d="M3831.844,4486.036l.061-.037-.186.2-.21.2-.186.174-.175.161-.149.136.087-.1.112-.111.186-.187.161-.148.174-.161Z" transform="translate(-3824.757 -4482.834)" fill="#f2bf7a" fill-rule="evenodd"/>
      <g id="Group_14" data-name="Group 14" transform="translate(5.535 4.468)" clip-path="url(#clip-path-5)">
        <rect id="star-anise.jpg_3" width="21.681" height="14.456" transform="translate(6.434 8.355) rotate(-178.138)" fill="none"/>
      </g>
      <path id="Path_37" data-name="Path 37" d="M3774.049,4591.682l-.013.037-.025.088-.012.062v.012l.025.024h.024l.086.026.087.024.05.024.112.038.2.062.124.05.086.038.162.062.211.049.161.05.162.037.2.025.124.024.137.013h.274l.186-.024.149-.013.161-.038.174-.037.173-.038.162-.036.174-.063.186-.062.187-.049.149-.05.162-.049.2-.05.162-.062.124-.038.112-.037.074-.024.025-.024v-.05l-.025-.036-.074-.026-.136-.062-.237-.112-.21-.074-.211-.05-.211-.062-.136-.025-.224-.063-.223-.036-.161-.037-.174-.038-.2-.037-.186-.025-.2.012h-.2l-.2.013-.2.024-.2.037-.186.05-.186.049-.174.05-.161.049-.149.037-.149.062-.186.112-.051.024-.012.013-.025.012h-.05l-.013.013-.012.024v.026l.012.038Z" transform="translate(-3768.464 -4586.532)" fill-rule="evenodd" fill="url(#radial-gradient-13)"/>
      <path id="Path_38" data-name="Path 38" d="M3786.344,4626.21l.05.038-.237.037-.285.038-.3.049-.285.049-.323.051-.211.037-.336.012h-.62l-.322-.025-.348-.062-.3-.038-.323-.074-.248-.05-.15-.012-.11.025.11-.025.261-.038.235-.049.348-.074.36-.049.347-.038h.707l.274-.012.36.024.5.038.422.061.248.05Z" transform="translate(-3776.365 -4621.098)" fill-rule="evenodd" fill="url(#radial-gradient-14)"/>
      <path id="Path_39" data-name="Path 39" d="M3829.246,4631.2l-.025.086-.236.075-.3.024h-.273l-.347-.011-.386-.038-.273-.037-.186-.038-.223-.049.086-.05.211-.049.223-.05.3-.038.25-.024.248.013h.224l.186.012.211.024.173.026.1.05Z" transform="translate(-3820.807 -4626.035)" fill-rule="evenodd" fill="url(#radial-gradient-15)"/>
      <path id="Path_40" data-name="Path 40" d="M3870.19,4644.037l.075.013h-.273l-.286-.013h-.26l-.236-.012-.211-.013.137-.012h.161l.261.012h.224l.235.013Z" transform="translate(-3862.284 -4638.875)" fill="#f2bf7a" fill-rule="evenodd"/>
      <g id="Group_15" data-name="Group 15" transform="translate(5.287 5.349)" clip-path="url(#clip-path-6)">
        <rect id="star-anise.jpg_4" width="21.681" height="14.456" transform="matrix(-0.671, -0.742, 0.742, -0.671, -0.907, 10.028)" fill="none"/>
      </g>
      <path id="Path_42" data-name="Path 42" d="M3754.173,4663.086l-.037.025-.075.037-.05.037-.013.012v.025l.013.038.05.062.037.086.025.05.05.1.087.2.05.123.038.087.061.149.112.2.075.149.087.148.111.149.087.112.087.1.1.124.087.075.136.123.125.1.125.088.16.1.137.1.149.073.162.087.174.1.162.087.148.074.136.087.187.112.149.074.112.063.111.049.063.038h.038l.037-.025.012-.037-.038-.087-.049-.137-.087-.248-.086-.2-.112-.186-.111-.2-.062-.112-.124-.211-.124-.186-.074-.137-.1-.149-.112-.173-.124-.149-.137-.137-.149-.148-.137-.125-.149-.123-.173-.125-.162-.1-.161-.1-.162-.089-.149-.085-.124-.075-.162-.063-.2-.061-.05-.013-.024-.013-.025-.013-.013-.012-.024-.012h-.012l-.037.012-.013.012-.013.038Z" transform="translate(-3748.712 -4657.638)" fill-rule="evenodd" fill="url(#radial-gradient-16)"/>
      <path id="Path_43" data-name="Path 43" d="M3771.078,4678.078l.012.062-.187-.136-.224-.187-.248-.186-.235-.174-.261-.186-.173-.137-.236-.224-.223-.236-.211-.223-.2-.236-.211-.3-.173-.248-.174-.261-.136-.235-.087-.1L3768,4675l.112.074.211.16.2.139.3.186.272.223.273.236.272.272.224.235.186.187.236.273.323.386.236.347.148.211Z" transform="translate(-3762.539 -4669.489)" fill-rule="evenodd" fill="url(#radial-gradient-17)"/>
      <path id="Path_44" data-name="Path 44" d="M3802.564,4709.6l-.075.038-.211-.111-.224-.2-.2-.2-.223-.261-.248-.311-.162-.21-.112-.161L3801,4708l.1.025.173.1.2.136.236.188.174.16.173.187.149.161.137.149.125.161.1.149.024.1Z" transform="translate(-3795.129 -4702.081)" fill-rule="evenodd" fill="url(#radial-gradient-18)"/>
      <path id="Path_45" data-name="Path 45" d="M3832.818,4736.869l.038.062-.187-.2-.2-.21-.174-.2-.161-.174L3832,4736l.1.086.125.112.173.2.149.162.161.173Z" transform="translate(-3825.744 -4729.732)" fill="#f2bf7a" fill-rule="evenodd"/>
      <g id="Group_16" data-name="Group 16" transform="translate(4.393 5.535)" clip-path="url(#clip-path-7)">
        <rect id="star-anise.jpg_5" width="21.681" height="14.456" transform="translate(-6.99 6.322) rotate(-87.294)" fill="none"/>
      </g>
      <path id="Path_47" data-name="Path 47" d="M3682.77,4677.049h-.038l-.074-.037-.062-.012h-.024l-.012.012-.012.037-.012.086-.038.086-.025.05-.037.1-.062.2-.049.136-.05.088-.05.148-.062.213-.05.173-.037.162-.038.186-.024.124-.012.148v.262l.012.186.024.148.025.163.037.186.037.163.038.161.049.174.063.2.062.174.038.148.049.163.05.21.05.161.037.125.037.111.025.075.024.024h.05l.037-.024.025-.075.061-.137.112-.236.075-.2.062-.211.062-.223.037-.124.05-.236.05-.211.037-.163.05-.172.037-.2.013-.186v-.6l-.024-.2-.038-.211-.037-.173-.062-.187-.049-.174-.037-.172-.037-.137-.062-.149-.112-.2-.025-.037-.012-.024v-.025l-.013-.025v-.038l-.037-.013-.025.013h-.024Z" transform="translate(-3677.607 -4671.465)" fill-rule="evenodd" fill="url(#radial-gradient-19)"/>
      <path id="Path_48" data-name="Path 48" d="M3720.286,4689.343l-.051.05-.024-.237-.038-.285-.049-.3-.037-.285-.051-.324-.024-.21-.012-.347v-.311l.012-.31.024-.31.063-.349.05-.31.075-.309.05-.25.013-.149-.025-.111.025.111.037.262.05.235.074.36.038.347.024.347v.993l-.024.348-.05.508-.062.411-.05.248Z" transform="translate(-3715.134 -4679.364)" fill-rule="evenodd" fill="url(#radial-gradient-20)"/>
      <path id="Path_49" data-name="Path 49" d="M3726.173,4732.246l-.087-.025-.062-.234-.024-.3v-.274l.024-.347.037-.4.049-.261.025-.187.049-.223.063.1.05.2.037.223.038.311.013.236v.248l-.013.224-.013.2-.024.2-.037.173-.05.1Z" transform="translate(-3721.061 -4723.807)" fill-rule="evenodd" fill="url(#radial-gradient-21)"/>
      <path id="Path_50" data-name="Path 50" d="M3740.012,4773.189l-.012.076v-.274l.012-.285.013-.261.012-.236.013-.21.012.137-.012.161-.013.261v.223l-.012.236Z" transform="translate(-3734.886 -4765.284)" fill="#f2bf7a" fill-rule="evenodd"/>
      <g id="Group_17" data-name="Group 17" transform="translate(1.378 5.299)" clip-path="url(#clip-path-8)">
        <rect id="star-anise.jpg_6" width="21.681" height="14.456" transform="translate(-6.414 -1.074) rotate(-41.171)" fill="none"/>
      </g>
      <path id="Path_52" data-name="Path 52" d="M3442.488,4658.174l-.025-.025-.024-.087-.038-.05-.012-.012h-.024l-.038.012-.062.038-.087.05-.049.012-.112.049-.186.087-.125.05-.1.038-.149.062-.2.1-.149.088-.149.073-.149.113-.111.074-.112.087-.111.112-.087.073-.125.137-.1.123-.087.125-.1.149-.1.148-.086.138-.087.16-.1.174-.1.161-.075.138-.087.148-.112.174-.074.148-.075.112-.049.11-.038.063v.037l.038.038.037.012.075-.024.137-.049.248-.088.2-.087.2-.1.2-.111.111-.062.211-.124.186-.112.137-.086.162-.088.173-.111.149-.111.137-.137.148-.148.137-.137.124-.148.124-.175.1-.161.1-.162.087-.147.1-.149.074-.137.062-.149.063-.2.012-.05.013-.024.012-.025.012-.013.012-.024.013-.013-.013-.023-.024-.026-.025-.012Z" transform="translate(-3437.623 -4652.701)" fill-rule="evenodd" fill="url(#radial-gradient-22)"/>
      <path id="Path_53" data-name="Path 53" d="M3458.074,4675.027l-.075.013.148-.186.187-.224.186-.248.174-.224.2-.26.136-.175.237-.235.236-.211.223-.21.237-.2.3-.2.26-.175.273-.161.223-.137.112-.1.063-.1-.062.1-.162.211-.149.2-.2.3-.224.272-.235.26-.286.274-.235.21-.2.2-.273.222-.385.311-.347.248-.211.136Z" transform="translate(-3456.386 -4666.526)" fill-rule="evenodd" fill="url(#radial-gradient-23)"/>
      <path id="Path_54" data-name="Path 54" d="M3548.036,4705.538l-.037-.075.124-.21.2-.223.2-.187.26-.224.311-.235.223-.162.162-.1.186-.124-.024.1-.112.173-.137.2-.186.236-.161.174-.186.174-.173.136-.149.137-.162.111-.148.1-.112.038Z" transform="translate(-3545.269 -4698.129)" fill-rule="evenodd" fill="url(#radial-gradient-24)"/>
      <path id="Path_55" data-name="Path 55" d="M3578.062,4735.807l-.062.024.2-.174.21-.2.2-.174.174-.149.162-.136-.1.1-.112.11-.2.174-.162.149-.173.161Z" transform="translate(-3574.898 -4728.745)" fill="#f2bf7a" fill-rule="evenodd"/>
      <path id="Path_56" data-name="Path 56" d="M3709.049,4613.248l-.013-.012h.025v-.013l.025-.038.012-.024.024-.025.025-.024.024-.013.025-.012.024-.012.038-.013.024-.025v-.012l.013-.013.013.013.037-.013.024-.012h.087l.024.012.038.013h.013l.025.012h.061l.013.013v.012l.025.013.024.012.012.012.013.013h.012l.025.024.025.05.012.025.012.038.025.025.012.013h.012l-.012.024h0v.025l.012.037v.025l.012.012-.012.037-.012.038-.012.05-.013.024v.05l.013.012h-.025l-.012.012-.012.013-.025.038-.012.024-.038.025-.037.025-.025.012h-.013l-.024.012-.025.025h-.011v.024l-.013-.012h-.012l-.024.012h-.05l-.012.014h-.05l-.012-.014-.026-.012h-.011l-.025-.012h-.024l-.013-.013h-.05l-.012.013v-.013l-.012-.012-.012-.012-.025-.012-.013-.013-.024-.012-.012-.013-.012-.012-.012-.024v-.025l-.012-.025v-.012l-.013-.012-.012-.024-.012-.013h0l-.013-.012h-.012v-.024l-.013-.025v-.037l-.012-.037v-.037l.012-.038.013-.012.012-.026v-.026l.013-.024v-.025Z" transform="translate(-3704.271 -4608.259)" fill="#bb6335" stroke="#934f34" stroke-width="3" fill-rule="evenodd"/>
      <path id="Path_57" data-name="Path 57" d="M3730.025,4634.086h0l.013-.013v-.013l.012-.012.012-.013h.025v-.013h.013l.013-.011h0V4634l.012.012.013-.012h.05l.012.012h.049v.011h0l.013.013h.011l.013.013.013.024v.013h.013v.013l.012.013h0v.074l-.012.013v.036h-.013v.013l-.013.013v.012l-.013.013h-.024l-.012.013h-.013v.013h-.037v.012h-.026l-.012-.012h-.025l-.012-.013h-.013l-.013.013v-.013h-.012v-.013h-.013v-.013h-.012v-.012h0l-.012-.013v-.013h0v-.012h-.013v-.011h-.013v-.013h0v-.026l-.012-.011.012-.013v-.025h0l.013-.011v-.013h0Z" transform="translate(-3725.012 -4628.999)" fill="#f1ab66" stroke="#934f34" stroke-width="3" fill-rule="evenodd"/>
    </g>
    <g id="_2681120088656" transform="translate(700.17 1036.084)">
      <g id="Group_18" data-name="Group 18" transform="translate(0 4.443)" clip-path="url(#clip-path-9)">
        <rect id="star-anise.jpg_7" width="21.681" height="14.456" transform="translate(-1.707 -6.901) rotate(1.501)" fill="none"/>
      </g>
      <path id="Path_59" data-name="Path 59" d="M4776.727,4592.731v-.038l.037-.087.013-.062-.013-.013-.011-.024h-.038l-.074-.025-.1-.024-.037-.025-.113-.037-.2-.063-.124-.049-.1-.037-.15-.05-.223-.062-.161-.05-.163-.037-.185-.025-.137-.013-.137-.012h-.273l-.187.024-.149.012-.148.038-.187.037-.162.038-.161.049-.174.05-.2.074-.172.049-.151.05-.16.049-.2.05-.161.063-.125.037-.111.038-.075.024-.024.025v.049l.012.038.087.024.137.063.235.112.211.074.21.05.213.062.137.025.234.049.212.051.161.037.174.037.2.025.186.024.2-.013h.2l.2-.011.2-.025.211-.037.174-.05.187-.062.172-.05.163-.037.149-.049.147-.062.186-.112.05-.024.013-.013.025-.013h.025l.024-.012h.013l.012-.024-.012-.025v-.037Z" transform="translate(-4771.999 -4587.557)" fill-rule="evenodd" fill="url(#radial-gradient-25)"/>
      <path id="Path_60" data-name="Path 60" d="M4795.05,4630.322l-.05-.037.235-.036.286-.038.3-.05.286-.049.322-.062.211-.024.335-.026h.62l.311.026.359.048.3.051.312.062.26.049.148.013.112-.024-.112.024-.26.036-.236.05-.359.086-.347.05-.349.024-.4.013h-.311l-.285.012-.349-.025-.5-.037-.422-.049-.248-.05Z" transform="translate(-4794.715 -4625.085)" fill-rule="evenodd" fill="url(#radial-gradient-26)"/>
      <path id="Path_61" data-name="Path 61" d="M4923,4636.186l.012-.087.248-.074.285-.024h.274l.348.012.4.037.273.037.186.025.224.05-.1.049-.2.063-.223.038-.3.049-.248.013h-.471l-.187-.013-.211-.013-.174-.036-.1-.05Z" transform="translate(-4921.126 -4631.011)" fill-rule="evenodd" fill="url(#radial-gradient-27)"/>
      <path id="Path_62" data-name="Path 62" d="M4960.074,4650.012,4960,4650h.272l.285.013h.262l.235.012.2.013h-.559l-.224-.013h-.223Z" transform="translate(-4957.667 -4644.836)" fill="#f2bf7a" fill-rule="evenodd"/>
      <g id="Group_19" data-name="Group 19" transform="translate(1.452 1.527)" clip-path="url(#clip-path-10)">
        <rect id="star-anise.jpg_8" width="21.681" height="14.456" transform="matrix(0.693, 0.721, -0.721, 0.693, 4.177, -6.61)" fill="none"/>
      </g>
      <path id="Path_64" data-name="Path 64" d="M4892.4,4360.338l.025-.024.074-.037.05-.038.013-.011v-.025l-.013-.024-.05-.075-.049-.086-.011-.05-.05-.1-.1-.187-.049-.124-.05-.087-.062-.148-.112-.186-.086-.149-.1-.15-.112-.149-.075-.1-.1-.111-.111-.112-.075-.074-.148-.112-.125-.1-.138-.087-.148-.086-.148-.1-.149-.075-.161-.087-.186-.086-.163-.087-.135-.062-.149-.087-.186-.1-.149-.074-.112-.062-.124-.05-.063-.025-.025-.012-.049.037v.038l.038.086.049.137.1.235.1.2.1.186.125.2.073.111.125.2.124.186.086.137.1.149.125.162.125.148.135.137.149.137.148.125.149.124.174.112.174.1.161.086.161.087.148.087.137.062.149.063.211.049.049.012.026.013.024.012.013.012.023.012h.013l.025-.012.013-.024.024-.025Z" transform="translate(-4887.548 -4355.474)" fill-rule="evenodd" fill="url(#radial-gradient-28)"/>
      <path id="Path_65" data-name="Path 65" d="M4906.012,4376.073,4906,4376l.187.136.235.175.248.173.235.174.273.187.174.124.248.223.223.224.224.211.211.236.211.284.186.249.175.261.149.224.1.1.1.062-.1-.062-.225-.149-.2-.136-.31-.187-.285-.212-.272-.223-.286-.273-.224-.223-.2-.187-.236-.261-.335-.372-.26-.335-.137-.211Z" transform="translate(-4904.336 -4374.237)" fill-rule="evenodd" fill="url(#radial-gradient-29)"/>
      <path id="Path_66" data-name="Path 66" d="M4996.035,4461.049l.063-.05.225.112.222.2.211.187.236.248.249.311.172.21.112.151.125.186-.112-.024-.174-.1-.2-.125-.236-.186-.187-.15-.186-.186-.148-.148-.136-.148-.125-.162-.1-.137-.049-.111Z" transform="translate(-4993.219 -4458.182)" fill-rule="evenodd" fill="url(#radial-gradient-30)"/>
      <path id="Path_67" data-name="Path 67" d="M5026.036,4490.062,5026,4490l.186.186.2.211.187.187.161.174.137.149-.1-.087-.112-.112-.187-.187-.16-.161-.162-.174Z" transform="translate(-5022.847 -4486.823)" fill="#f2bf7a" fill-rule="evenodd"/>
      <g id="Group_20" data-name="Group 20" transform="translate(4.443)" clip-path="url(#clip-path-11)">
        <rect id="star-anise.jpg_9" width="21.681" height="14.456" transform="translate(8.326 -1.712) rotate(91.47)" fill="none"/>
      </g>
      <path id="Path_69" data-name="Path 69" d="M5130.708,4238.729h.036l.075.036.062.014.025-.014.012-.011.013-.038.012-.074.024-.1.026-.05.038-.1.062-.2.049-.137.037-.087.05-.149.062-.223.05-.162.036-.161.025-.187.012-.137.013-.136v-.273l-.025-.186-.013-.149-.036-.161-.039-.173-.038-.162-.049-.162-.05-.173-.073-.2-.052-.173-.049-.149-.049-.161-.062-.2-.05-.162-.038-.125-.049-.124-.013-.062-.024-.025h-.063l-.023.013-.038.086-.062.137-.1.236-.075.21-.049.212-.062.21-.026.138-.049.223-.05.224-.036.161-.038.174-.026.2-.023.186.012.2v.2l.011.2.026.2.038.2.049.186.062.186.05.174.05.162.036.148.063.149.111.187.026.037.011.025.012.025v.024l.013.025v.012l.026.013.024-.013h.036Z" transform="translate(-5125.557 -4234)" fill-rule="evenodd" fill="url(#radial-gradient-31)"/>
      <path id="Path_70" data-name="Path 70" d="M5165.2,4257.05l.037-.05.037.223.037.3.049.3.05.284.063.311.025.224.025.336v.621l-.025.31-.049.359-.05.3-.062.312-.049.26-.012.148.025.112-.025-.112-.037-.26-.05-.237-.086-.36-.05-.346-.026-.348-.012-.4v-.323l-.012-.271.024-.35.038-.5.049-.423.05-.248Z" transform="translate(-5160.122 -4256.715)" fill-rule="evenodd" fill="url(#radial-gradient-32)"/>
      <path id="Path_71" data-name="Path 71" d="M5171.186,4385l.087.012.074.236.025.3v.273l-.013.348-.037.4-.036.272-.026.188-.05.21-.049-.087-.062-.2-.037-.222-.05-.3-.012-.248v-.472l.012-.2.013-.2.037-.174.05-.1Z" transform="translate(-5166.048 -4383.126)" fill-rule="evenodd" fill="url(#radial-gradient-33)"/>
      <path id="Path_72" data-name="Path 72" d="M5184.023,4422.062l.014-.062v.273l-.014.286v.5l-.012.2-.012-.138v-.421l.012-.223v-.235Z" transform="translate(-5178.886 -4419.667)" fill="#f2bf7a" fill-rule="evenodd"/>
      <g id="Group_21" data-name="Group 21" transform="translate(5.349 1.477)" clip-path="url(#clip-path-12)">
        <rect id="star-anise.jpg_10" width="21.681" height="14.456" transform="matrix(-0.727, 0.687, -0.687, -0.727, 10.044, 4.228)" fill="none"/>
      </g>
      <path id="Path_74" data-name="Path 74" d="M5203.1,4356.376l.025.025.037.074.038.049.012.013h.024l.026-.013.075-.049.087-.05.049-.012.1-.051.186-.1.124-.051.088-.036.149-.074.2-.112.149-.088.137-.086.148-.112.112-.073.113-.1.111-.112.075-.073.112-.15.1-.124.086-.124.1-.161.087-.137.087-.147.075-.163.1-.187.087-.16.062-.149.086-.136.1-.187.074-.148.063-.123.049-.112.037-.062v-.038l-.037-.037h-.037l-.075.024-.137.063-.248.086-.2.1-.187.112-.2.111-.112.074-.2.123-.186.124-.137.088-.149.087-.173.124-.137.124-.136.137-.138.149-.136.148-.123.149-.112.172-.1.161-.086.176-.087.161-.088.148-.061.136-.062.15-.062.21-.012.05-.013.024-.012.013v.024l-.013.014-.012.024.012.025.025.012.025.013Z" transform="translate(-5197.65 -4351.523)" fill-rule="evenodd" fill="url(#radial-gradient-34)"/>
      <path id="Path_75" data-name="Path 75" d="M5219,4370h.062l-.137.187-.187.223-.16.261-.175.236-.186.261-.124.174-.235.248-.225.224-.21.223-.236.2-.286.211-.248.186-.26.174-.224.149-.111.087-.062.112.062-.112.16-.21.125-.2.186-.31.223-.286.225-.26.271-.286.225-.224.187-.2.261-.235.384-.334.335-.249.212-.15Z" transform="translate(-5210.489 -4368.313)" fill-rule="evenodd" fill="url(#radial-gradient-35)"/>
      <path id="Path_76" data-name="Path 76" d="M5248.563,4459.037l.05.062-.112.225-.186.224-.2.2-.249.236-.311.261-.211.161-.149.112-.2.123.025-.112.112-.173.124-.2.187-.236.149-.186.187-.175.161-.148.137-.136.161-.138.148-.1.1-.037Z" transform="translate(-5241.104 -4456.208)" fill-rule="evenodd" fill="url(#radial-gradient-36)"/>
      <path id="Path_77" data-name="Path 77" d="M5275.844,4488.049l.062-.05-.186.2-.211.2-.2.186-.162.161-.149.125.088-.1.111-.112.187-.186.16-.149.175-.162Z" transform="translate(-5268.757 -4484.847)" fill="#f2bf7a" fill-rule="evenodd"/>
      <g id="Group_22" data-name="Group 22" transform="translate(5.535 4.456)" clip-path="url(#clip-path-13)">
        <rect id="star-anise.jpg_11" width="21.681" height="14.456" transform="translate(6.433 8.359) rotate(-178.138)" fill="none"/>
      </g>
      <path id="Path_79" data-name="Path 79" d="M5218.049,4594.683l-.014.037-.023.074-.012.062v.026l.024.013.025.011.086.013.086.025.05.024.113.037.2.075.123.037.087.038.162.061.211.062.161.05.162.025.2.036.124.014.137.012.161.012.112-.012.186-.012.149-.025.162-.024.173-.049.174-.026.161-.049.161-.05.2-.075.185-.05.149-.049.149-.05.21-.05.161-.05.125-.037.111-.049.074-.026.025-.024v-.05l-.025-.025-.074-.037-.136-.062-.236-.1-.211-.075-.21-.062-.211-.062-.136-.025-.236-.05-.211-.05-.162-.037-.173-.037-.2-.038-.187-.012h-.2l-.2.012h-.2l-.2.026-.21.036-.175.049-.186.05-.173.063-.162.037-.148.05-.15.063-.185.1-.05.024-.025.014-.026.012h-.012l-.024.012h-.014l-.011.025v.037l.011.025Z" transform="translate(-5212.465 -4589.532)" fill-rule="evenodd" fill="url(#radial-gradient-37)"/>
      <path id="Path_80" data-name="Path 80" d="M5229.355,4629.2l.049.037-.235.038-.285.037-.3.05-.285.049-.323.05-.21.037-.336.013h-.632l-.31-.026-.349-.049-.31-.048-.31-.062-.249-.062-.149-.013-.124.025.124-.025.26-.037.237-.05.347-.074.36-.05.346-.025.4-.013h.583l.36.013.5.049.422.05.249.049Z" transform="translate(-5219.377 -4624.097)" fill-rule="evenodd" fill="url(#radial-gradient-38)"/>
      <path id="Path_81" data-name="Path 81" d="M5273.234,4634.2l-.013.074-.235.075-.3.024h-.272l-.348-.012-.4-.037-.26-.038-.187-.037-.223-.036.086-.063.211-.049.224-.05.3-.037.235-.012h.484l.187.012.211.024.174.024.1.062Z" transform="translate(-5264.808 -4629.035)" fill-rule="evenodd" fill="url(#radial-gradient-39)"/>
      <path id="Path_82" data-name="Path 82" d="M5314.191,4647.025l.075.012h-.56l-.273-.012-.223-.013L5313,4647h.558l.223.013h.236Z" transform="translate(-5306.285 -4641.875)" fill="#f2bf7a" fill-rule="evenodd"/>
      <g id="Group_23" data-name="Group 23" transform="translate(5.275 5.349)" clip-path="url(#clip-path-14)">
        <rect id="star-anise.jpg_12" width="21.681" height="14.456" transform="matrix(-0.671, -0.742, 0.742, -0.671, -0.896, 10.019)" fill="none"/>
      </g>
      <path id="Path_84" data-name="Path 84" d="M5198.173,4665.1l-.037.026-.074.023-.05.039-.012.012v.037l.012.024.05.063.038.086.022.051.051.111.086.186.051.125.037.086.062.149.112.2.075.148.086.149.112.149.074.112.1.112.1.112.086.073.137.124.124.1.125.086.161.1.137.1.149.086.147.087.186.087.163.1.137.062.147.087.186.112.149.075.112.061.112.063.062.025.036.012.038-.038.011-.037-.035-.086-.05-.137-.087-.248-.1-.2-.1-.186-.111-.2-.061-.112-.125-.21-.124-.187-.075-.136-.1-.149-.112-.173-.124-.149-.137-.137-.147-.136-.137-.136-.149-.125-.175-.123-.16-.1-.163-.1-.161-.076-.147-.1-.139-.073-.146-.062-.212-.062-.05-.013-.013-.011-.024-.013h-.024l-.014-.024h-.024l-.022.013-.015.024-.012.024Z" transform="translate(-5192.713 -4659.651)" fill-rule="evenodd" fill="url(#radial-gradient-40)"/>
      <path id="Path_85" data-name="Path 85" d="M5215.077,4681.065l.012.063-.186-.137-.223-.187-.25-.173-.235-.175-.26-.2-.174-.124-.249-.236-.211-.223-.211-.223-.2-.249-.211-.286-.174-.248-.173-.273-.137-.222-.1-.112-.1-.062.1.063.21.161.2.137.31.2.273.211.26.235.286.286.212.223.2.2.235.261.311.4.248.334.149.211Z" transform="translate(-5206.538 -4672.489)" fill-rule="evenodd" fill="url(#radial-gradient-41)"/>
      <path id="Path_86" data-name="Path 86" d="M5246.563,4711.6l-.073.037-.224-.111-.21-.2-.2-.2-.223-.26-.25-.31-.161-.211-.112-.162L5245,4710l.1.025.175.112.186.124.249.186.174.162.173.186.148.162.137.149.125.162.086.149.037.112Z" transform="translate(-5239.129 -4704.092)" fill-rule="evenodd" fill="url(#radial-gradient-42)"/>
      <path id="Path_87" data-name="Path 87" d="M5276.818,4738.868l.037.063-.2-.2-.186-.212-.173-.2-.162-.174L5276,4738l.1.086.111.124.187.187.149.161.161.175Z" transform="translate(-5269.745 -4731.745)" fill="#f2bf7a" fill-rule="evenodd"/>
      <g id="Group_24" data-name="Group 24" transform="translate(4.393 5.523)" clip-path="url(#clip-path-15)">
        <rect id="star-anise.jpg_13" width="21.681" height="14.456" transform="translate(-6.991 6.325) rotate(-87.294)" fill="none"/>
      </g>
      <path id="Path_89" data-name="Path 89" d="M5126.769,4679.049h-.037l-.075-.038-.062-.012h-.024l-.013.025-.011.037-.026.074-.023.087-.026.05-.038.112-.062.2-.062.124-.037.086-.049.149-.062.224-.05.161-.037.162-.038.188-.025.135-.013.137v.272l.013.187.025.148.024.15.038.185.037.163.037.16.05.175.062.2.05.173.05.162.049.161.05.2.049.162.038.124.037.112.024.074.026.024h.05l.025-.012.037-.086.063-.124.112-.236.073-.21.063-.212.063-.21.024-.137.062-.236.05-.21.037-.148.05-.187.037-.2.013-.187v-.6l-.025-.2-.037-.2-.05-.187-.05-.186-.049-.175-.037-.16-.038-.149-.062-.149-.111-.2-.024-.037-.013-.024v-.025l-.012-.013v-.024l-.012-.024-.025-.013-.024.013-.038.012Z" transform="translate(-5121.605 -4673.476)" fill-rule="evenodd" fill="url(#radial-gradient-43)"/>
      <path id="Path_90" data-name="Path 90" d="M5164.272,4691.344l-.036.062-.026-.236-.036-.3-.051-.3-.036-.286-.05-.322-.025-.212-.012-.335v-.322l.012-.3.025-.311.062-.36.05-.3.062-.309.063-.261.012-.149-.023-.112.023.112.038.271.05.237.074.347.038.361.024.347v.385l-.013.322.013.273-.024.359-.05.5-.062.409-.05.248Z" transform="translate(-5159.134 -4681.376)" fill-rule="evenodd" fill="url(#radial-gradient-44)"/>
      <path id="Path_91" data-name="Path 91" d="M5170.173,4735.233l-.087-.013-.074-.248-.012-.3v-.274l.024-.348.038-.384.037-.273.037-.186.049-.211.063.087.05.2.037.225.038.31.012.236v.261l-.012.211-.013.2-.025.2-.037.173-.05.1Z" transform="translate(-5165.06 -4726.807)" fill-rule="evenodd" fill="url(#radial-gradient-45)"/>
      <path id="Path_92" data-name="Path 92" d="M5184.012,4776.19l-.012.063v-.274l.012-.286.012-.26.014-.236.012-.2v.3l-.012.261v.223l-.014.236Z" transform="translate(-5178.886 -4768.285)" fill="#f2bf7a" fill-rule="evenodd"/>
      <g id="Group_25" data-name="Group 25" transform="translate(1.378 5.287)" clip-path="url(#clip-path-16)">
        <rect id="star-anise.jpg_14" width="21.681" height="14.456" transform="translate(-6.416 -1.07) rotate(-41.171)" fill="none"/>
      </g>
      <path id="Path_94" data-name="Path 94" d="M4886.487,4660.174l-.025-.026-.025-.073-.037-.062-.012-.013h-.037l-.025.013-.074.049-.075.038-.062.025-.1.037-.186.087-.123.05-.1.037-.149.063-.2.112-.147.074-.15.086-.147.1-.112.075-.112.086-.112.111-.087.076-.124.148-.1.111-.087.137-.1.149-.1.137-.087.149-.1.149-.1.186-.086.162-.075.136-.087.137-.111.187-.075.149-.075.111-.05.111-.037.063v.024l.037.049h.025l.087-.024.137-.049.248-.088.2-.087.2-.1.2-.1.112-.076.211-.123.186-.112.136-.074.162-.1.174-.112.147-.112.137-.137.149-.149.137-.136.125-.149.123-.162.1-.161.1-.16.087-.163.1-.149.075-.124.061-.149.063-.211.013-.049.012-.025.012-.024.013-.012.012-.024.013-.013-.013-.025-.025-.012-.024-.025Z" transform="translate(-4881.622 -4654.712)" fill-rule="evenodd" fill="url(#radial-gradient-46)"/>
      <path id="Path_95" data-name="Path 95" d="M4902.074,4678.016l-.074.012.148-.186.186-.224.187-.247.173-.225.2-.26.137-.161.236-.25.223-.21.237-.211.235-.2.3-.2.25-.173.272-.162.236-.137.111-.087.063-.1-.062.1-.173.2-.136.2-.2.3-.224.287-.236.247-.286.286-.234.211-.2.187-.272.235-.385.311-.347.235-.212.137Z" transform="translate(-4900.387 -4669.526)" fill-rule="evenodd" fill="url(#radial-gradient-47)"/>
      <path id="Path_96" data-name="Path 96" d="M4992.036,4707.538l-.036-.062.123-.225.2-.21.2-.2.259-.225.312-.235.223-.161.16-.1.187-.123-.026.11-.111.175-.137.186-.186.235-.162.175-.2.173-.16.148-.15.125-.161.123-.148.088-.112.037Z" transform="translate(-4989.27 -4700.142)" fill-rule="evenodd" fill="url(#radial-gradient-48)"/>
      <path id="Path_97" data-name="Path 97" d="M5022.061,4738.794l-.062.037.187-.187.223-.2.2-.161.174-.16.161-.125-.1.1-.111.11-.2.162-.162.148-.186.161Z" transform="translate(-5018.896 -4731.745)" fill="#f2bf7a" fill-rule="evenodd"/>
      <path id="Path_98" data-name="Path 98" d="M5153.049,4615.249l-.012-.013h.012l.013-.013.024-.038.013-.012.025-.037.024-.026.026-.012.024-.013.026-.012.037-.013.013-.024h.012l.014-.013h.012l.024-.013h.037l.038-.012h.05l.011.012.05.013.012.013h.05l.012.013.024-.013h0l.013.013v.012l.025.013.024.012.013.013.012.012.011.013.026.025.024.036.013.038.012.026.025.024.013.013h.013l-.013.024h0v.038l.013.024v.023l.012.026-.012.039-.013.038-.013.036-.012.037v.049h-.013l-.012.013-.013.026-.024.024-.013.036-.037.026-.038.013-.025.012-.013.013-.024.013-.025.011h0l-.013.012h0v.013l-.012-.013-.013.013h-.05l-.012.013h-.074l-.013-.013h-.024l-.012-.013-.024-.012h-.038l-.024-.011h-.025v.011h-.011v-.011l-.012-.013h-.014l-.024-.024-.026-.013-.012-.013-.012-.013-.013-.012-.013-.024v-.024l-.013-.013v-.013l-.011-.024-.013-.013-.013-.013v-.012l-.012-.011h-.012v-.013l-.012-.026v-.049l-.014-.024v-.038l.014-.037.012-.024.012-.026v-.049l.012-.013Z" transform="translate(-5148.27 -4610.271)" fill="#bb6335" stroke="#934f34" stroke-width="3" fill-rule="evenodd"/>
      <path id="Path_99" data-name="Path 99" d="M5174.024,4636.1v-.013h0l.012-.012v-.013l.012-.013h.013l.012-.013h.013l.012-.012.013-.013h.024l.012-.012h.038l.013.012h.024l.012.013v-.013h0l.013.013h0l.011.012h0l.013.013h0l.012.013.012.013v.012l.012.013v.013h.013v.013h0v.024h0v.037l-.013.013v.025h0v.013h-.012v.012l-.012.013v.012l-.012.014h-.024v.011h-.013l-.012.014h-.013v0h0l-.012.012h-.05l-.012-.012h-.038v0h-.012v-.014h-.013v-.011h-.012l-.013-.014h0l-.012-.012v-.013h0v-.012h-.012v-.013h0l-.012-.014h0v-.024h0l-.013-.012v-.025l.013-.013h0v-.024h.012Z" transform="translate(-5169.01 -4631.011)" fill="#f1ab66" stroke="#934f34" stroke-width="3" fill-rule="evenodd"/>
    </g>
    <circle id="Ellipse_8" data-name="Ellipse 8" cx="1.266" cy="1.266" r="1.266" transform="translate(693.779 1068.514)" fill="#3c2e2c"/>
    <circle id="Ellipse_9" data-name="Ellipse 9" cx="1.266" cy="1.266" r="1.266" transform="translate(697.018 1068.489)" fill="#3c2e2c"/>
    <circle id="Ellipse_10" data-name="Ellipse 10" cx="1.266" cy="1.266" r="1.266" transform="translate(695.392 1071.083)" fill="#3c2e2c"/>
  </g>
</svg>
