<svg id="right-arrow" xmlns="http://www.w3.org/2000/svg" width="35.811" height="68.62" viewBox="0 0 35.811 68.62">
  <path id="Path_102" data-name="Path 102" d="M119.892.552a1.491,1.491,0,0,0-2.109,2.109l31.752,31.756L117.78,66.17a1.491,1.491,0,1,0,2.072,2.145l.037-.037L152.7,35.47a1.491,1.491,0,0,0,0-2.109Z" transform="translate(-117.325 -0.114)" fill="#13a64e"/>
  <path id="Path_103" data-name="Path 103" d="M118.941,68.6a1.491,1.491,0,0,1-1.056-2.547L149.64,34.3,117.885,2.549A1.493,1.493,0,0,1,120,.437L152.8,33.246a1.491,1.491,0,0,1,0,2.109L120,68.164A1.491,1.491,0,0,1,118.941,68.6Z" transform="translate(-117.43 0)" fill="#13a64e"/>
</svg>
