<svg xmlns="http://www.w3.org/2000/svg" width="28" height="28" viewBox="0 0 28 28">
  <g id="Group_3" data-name="Group 3" transform="translate(-2907 263)">
    <g id="Ellipse_5" data-name="Ellipse 5" transform="translate(2907 -263)" fill="#fff" stroke="#13a64e" stroke-width="1">
      <circle cx="14" cy="14" r="14" stroke="none"/>
      <circle cx="14" cy="14" r="13.5" fill="none"/>
    </g>
    <path id="twitter" d="M15.269,1.447a6.433,6.433,0,0,1-1.542,1.589q.009.133.009.4a8.734,8.734,0,0,1-.362,2.47,8.927,8.927,0,0,1-1.1,2.365,9.3,9.3,0,0,1-1.756,2,7.814,7.814,0,0,1-2.456,1.39,9,9,0,0,1-3.074.519A8.537,8.537,0,0,1,.269,10.8a6.576,6.576,0,0,0,.742.038A6.017,6.017,0,0,0,4.828,9.527,3.079,3.079,0,0,1,1.954,7.395a3.91,3.91,0,0,0,.581.047,3.186,3.186,0,0,0,.809-.1A3.023,3.023,0,0,1,1.578,6.276a2.968,2.968,0,0,1-.7-1.956V4.283a3.048,3.048,0,0,0,1.39.39,3.069,3.069,0,0,1-1-1.094A3,3,0,0,1,.9,2.113,3.011,3.011,0,0,1,1.316.562a8.707,8.707,0,0,0,2.8,2.27,8.569,8.569,0,0,0,3.536.947,3.415,3.415,0,0,1-.076-.7A2.962,2.962,0,0,1,8.478.9,3.081,3.081,0,0,1,12.9.971,6.017,6.017,0,0,0,14.85.228,2.987,2.987,0,0,1,13.5,1.923a6.128,6.128,0,0,0,1.77-.476Z" transform="translate(2913.731 -255)" fill="#13a64e"/>
  </g>
</svg>
