<svg xmlns="http://www.w3.org/2000/svg" width="28" height="28" viewBox="0 0 28 28">
  <g id="Group_2" data-name="Group 2" transform="translate(-2921 308)">
    <g id="Ellipse_2" data-name="Ellipse 2" transform="translate(2921 -308)" fill="#fff" stroke="#13a64e" stroke-width="1">
      <circle cx="14" cy="14" r="14" stroke="none"/>
      <circle cx="14" cy="14" r="13.5" fill="none"/>
    </g>
    <path id="youtube" d="M9.142,11.332v1.922q0,.61-.355.61a.585.585,0,0,1-.41-.2V10.922a.585.585,0,0,1,.41-.2q.355,0,.355.61Zm3.079.009v.419H11.4v-.419q0-.619.41-.619t.41.619Zm-8.8-1.986H4.4V8.5H1.554v.856H2.51v5.183h.911V9.355Zm2.624,5.183h.811v-4.5H6.045v3.443q-.273.383-.519.383-.164,0-.191-.191a2.544,2.544,0,0,1-.009-.319V10.039H4.515V13.6a2.252,2.252,0,0,0,.073.665.491.491,0,0,0,.528.337,1.334,1.334,0,0,0,.929-.555v.492Zm3.908-1.348V11.4a3.236,3.236,0,0,0-.082-.9.633.633,0,0,0-.647-.51,1.1,1.1,0,0,0-.847.492V8.5H7.566v6.039h.811V14.1a1.13,1.13,0,0,0,.847.5.63.63,0,0,0,.647-.5,3.344,3.344,0,0,0,.082-.911Zm3.079-.091v-.118H12.2a4.521,4.521,0,0,1-.018.555.349.349,0,0,1-.365.328q-.419,0-.419-.628v-.793h1.631v-.938a1.808,1.808,0,0,0-.246-1.057,1.245,1.245,0,0,0-1.94,0,1.755,1.755,0,0,0-.255,1.057v1.576a1.709,1.709,0,0,0,.264,1.057,1.169,1.169,0,0,0,.984.465,1.128,1.128,0,0,0,1.175-.975,4.028,4.028,0,0,0,.018-.528ZM7.493,4.782V2.869q0-.628-.392-.628t-.392.628V4.782q0,.638.392.638T7.493,4.782Zm6.55,6.841a15.791,15.791,0,0,1-.237,3.188,1.73,1.73,0,0,1-.528.9,1.592,1.592,0,0,1-.929.419,48.691,48.691,0,0,1-5.056.191,48.691,48.691,0,0,1-5.056-.191,1.616,1.616,0,0,1-.934-.419,1.663,1.663,0,0,1-.524-.9,15.467,15.467,0,0,1-.237-3.188A15.791,15.791,0,0,1,.78,8.435a1.73,1.73,0,0,1,.528-.9,1.65,1.65,0,0,1,.938-.428q1.667-.182,5.046-.182t5.056.182a1.71,1.71,0,0,1,1.457,1.33,15.467,15.467,0,0,1,.237,3.188ZM4.952,0h.929l-1.1,3.635V6.1H3.868V3.635A15.4,15.4,0,0,0,3.312,1.7Q2.975.765,2.72,0h.965l.647,2.4Zm3.37,3.034V4.628A1.8,1.8,0,0,1,8.067,5.7a1.135,1.135,0,0,1-.965.465A1.126,1.126,0,0,1,6.145,5.7,1.819,1.819,0,0,1,5.89,4.628V3.034a1.774,1.774,0,0,1,.255-1.066A1.126,1.126,0,0,1,7.1,1.5a1.135,1.135,0,0,1,.965.465A1.774,1.774,0,0,1,8.322,3.034Zm3.052-1.476V6.1h-.829V5.6a1.311,1.311,0,0,1-.938.565.506.506,0,0,1-.537-.337A2.333,2.333,0,0,1,9,5.148V1.558h.829V4.9a2.4,2.4,0,0,0,.009.319q.027.2.191.2.246,0,.519-.392V1.558h.829Z" transform="translate(2927.457 -302)" fill="#13a64e"/>
  </g>
</svg>
